<svg width="344" height="256" viewBox="0 0 344 256" fill="none" xmlns="http://www.w3.org/2000/svg">
<path d="M86.5 2C86.5 49.25 171.5 78.7939 171.5 128M1.5 2C33.375 72.875 171.5 78.7939 171.5 128M171.5 128C171.5 78.7939 171.5 2 171.5 2V128ZM171.5 128V254M171.5 128C171.5 177.206 33.375 183.125 1.5 254M171.5 128C171.5 177.206 86.5 206.75 86.5 254M171.5 128C171.5 78.7939 309.625 72.875 341.5 2M171.5 128C171.5 78.7939 256.5 49.25 256.5 2M171.5 128C171.5 177.206 309.625 183.125 341.5 254M171.5 128C171.5 177.206 256.5 206.75 256.5 254" stroke="url(#paint0_linear_6562_39424)" stroke-opacity="0.5" stroke-width="3" stroke-linecap="round"/>
<path d="M86.5 2C86.5 49.25 171.5 78.7939 171.5 128M1.5 2C33.375 72.875 171.5 78.7939 171.5 128M171.5 128C171.5 78.7939 171.5 2 171.5 2V128ZM171.5 128V254M171.5 128C171.5 177.206 33.375 183.125 1.5 254M171.5 128C171.5 177.206 86.5 206.75 86.5 254M171.5 128C171.5 78.7939 309.625 72.875 341.5 2M171.5 128C171.5 78.7939 256.5 49.25 256.5 2M171.5 128C171.5 177.206 309.625 183.125 341.5 254M171.5 128C171.5 177.206 256.5 206.75 256.5 254" stroke="url(#paint1_linear_6562_39424)" stroke-width="3" stroke-linecap="round" stroke-dasharray="1 34"/>
<path d="M124.323 100.249C123.05 97.2101 119.988 97.0256 116.438 97.8203L115.097 93.4708L112.418 94.3191L113.724 98.5539C113.02 98.7765 112.305 99.018 111.594 99.2584L110.28 94.9953L107.603 95.8424L108.943 100.191C108.367 100.386 107.8 100.577 107.245 100.753L107.241 100.74L103.546 101.908L104.419 104.735C104.419 104.735 106.385 104.072 106.363 104.118C107.448 103.775 107.994 104.286 108.262 104.791L109.79 109.746C109.865 109.722 109.964 109.695 110.079 109.675L109.797 109.764L111.936 116.706C111.992 117.059 111.957 117.66 111.2 117.902C111.243 117.921 109.253 118.517 109.253 118.517L109.696 121.848L113.182 120.744C113.831 120.54 114.472 120.349 115.1 120.155L116.458 124.554L119.133 123.708L117.792 119.355C118.53 119.138 119.243 118.919 119.937 118.698L121.272 123.031L123.95 122.183L122.597 117.792C127.021 116.111 129.827 113.992 128.929 109.69C128.207 106.225 126.143 105.229 123.399 105.431C124.71 104.156 125.257 102.472 124.323 100.249ZM123.475 110.841C124.49 114.129 118.681 115.557 116.865 116.133L115.069 110.304C116.885 109.73 122.416 107.414 123.475 110.841ZM119.693 103.013C120.615 106.004 115.758 107.158 114.245 107.637L112.615 102.351C114.128 101.872 118.732 99.893 119.693 103.013Z" fill="#D4D4D8"/>
<path d="M186.285 100.763C185.806 96.2182 181.81 94.7523 176.778 94.3934L176.729 88.0801L172.832 88.1394L172.879 94.2863C171.856 94.3016 170.809 94.3373 169.769 94.3734L169.722 88.1858L165.828 88.2443L165.875 94.5558C165.031 94.5855 164.203 94.6134 163.395 94.6261L163.395 94.6065L158.021 94.6856L158.053 98.7899C158.053 98.7899 160.93 98.6925 160.882 98.7455C162.461 98.7222 162.982 99.6178 163.137 100.396L163.192 107.588C163.301 107.587 163.443 107.589 163.604 107.608L163.193 107.615L163.269 117.691C163.203 118.182 162.917 118.967 161.814 118.986C161.865 119.028 158.982 119.027 158.982 119.027L158.243 123.629L163.315 123.553C164.259 123.54 165.187 123.541 166.098 123.534L166.148 129.92L170.041 129.862L169.993 123.544C171.061 123.55 172.095 123.543 173.105 123.527L173.151 129.815L177.048 129.756L177 123.382C183.548 122.913 188.121 121.216 188.642 115.142C189.064 110.25 186.719 108.105 182.993 107.279C185.243 106.109 186.641 104.088 186.285 100.763ZM180.938 114.498C180.975 119.27 172.688 118.853 170.046 118.894L169.983 110.434C172.624 110.395 180.897 109.522 180.938 114.498ZM179.033 102.59C179.065 106.931 172.152 106.528 169.952 106.562L169.893 98.8891C172.094 98.8555 178.999 98.0614 179.033 102.59Z" fill="#B67238"/>
<path d="M237.277 107.011C238.054 103.81 235.698 101.845 232.368 100.38L233.867 96.0823L231.207 95.1767L229.748 99.3611C229.049 99.1231 228.33 98.8933 227.615 98.6654L229.085 94.4536L226.427 93.5482L224.927 97.8442C224.347 97.6597 223.778 97.4776 223.227 97.2902L223.231 97.2768L219.564 96.0262L218.59 98.8203C218.59 98.8203 220.566 99.4524 220.521 99.4768C221.598 99.844 221.735 100.579 221.651 101.144L219.943 106.04C220.018 106.066 220.113 106.102 220.218 106.154L219.938 106.059L217.544 112.917C217.38 113.234 216.995 113.698 216.242 113.443C216.266 113.484 214.309 112.784 214.309 112.784L212.691 115.729L216.152 116.908C216.796 117.128 217.426 117.354 218.046 117.57L216.531 121.918L219.187 122.823L220.688 118.522C221.411 118.786 222.115 119.032 222.805 119.266L221.31 123.546L223.969 124.452L225.484 120.113C230.043 121.384 233.559 121.342 235.387 117.345C236.861 114.126 235.789 112.101 233.46 110.636C235.272 110.387 236.711 109.355 237.277 107.011ZM230.313 115.038C229.181 118.286 223.656 115.992 221.853 115.379L223.862 109.62C225.665 110.235 231.493 111.65 230.313 115.038ZM231.91 106.491C230.878 109.446 226.283 107.495 224.781 106.984L226.604 101.761C228.106 102.272 232.986 103.409 231.91 106.491Z" fill="#D4D4D8"/>
<path d="M77.9787 148.374V162.92H76.2173V150.221H76.1321L72.581 152.579V150.789L76.2173 148.374H77.9787ZM87.2472 149.937V148.374H98.1562V149.937H93.5824V162.92H91.821V149.937H87.2472ZM100.875 162.92V148.374H105.789C106.926 148.374 107.859 148.569 108.588 148.957C109.317 149.34 109.857 149.868 110.207 150.541C110.557 151.213 110.733 151.978 110.733 152.835C110.733 153.692 110.557 154.452 110.207 155.115C109.857 155.777 109.319 156.298 108.595 156.677C107.87 157.051 106.945 157.238 105.818 157.238H101.841V155.647H105.761C106.538 155.647 107.163 155.534 107.636 155.306C108.114 155.079 108.46 154.757 108.673 154.34C108.891 153.919 109 153.417 109 152.835C109 152.252 108.891 151.743 108.673 151.308C108.455 150.872 108.107 150.536 107.629 150.299C107.151 150.058 106.519 149.937 105.733 149.937H102.636V162.92H100.875ZM107.721 156.386L111.301 162.92H109.255L105.733 156.386H107.721ZM115.429 148.374V162.92H113.668V148.374H115.429ZM118.961 162.92V148.374H120.722V161.357H127.483V162.92H118.961ZM130.211 162.92V148.374H131.972V161.357H138.733V162.92H130.211ZM143.222 148.374V162.92H141.461V148.374H143.222ZM159.026 155.647C159.026 157.181 158.749 158.507 158.195 159.624C157.641 160.742 156.881 161.604 155.915 162.21C154.95 162.816 153.846 163.119 152.606 163.119C151.365 163.119 150.262 162.816 149.296 162.21C148.33 161.604 147.57 160.742 147.016 159.624C146.462 158.507 146.185 157.181 146.185 155.647C146.185 154.113 146.462 152.787 147.016 151.67C147.57 150.552 148.33 149.691 149.296 149.085C150.262 148.479 151.365 148.176 152.606 148.176C153.846 148.176 154.95 148.479 155.915 149.085C156.881 149.691 157.641 150.552 158.195 151.67C158.749 152.787 159.026 154.113 159.026 155.647ZM157.322 155.647C157.322 154.388 157.111 153.325 156.69 152.458C156.273 151.592 155.707 150.936 154.992 150.491C154.282 150.046 153.487 149.823 152.606 149.823C151.725 149.823 150.927 150.046 150.212 150.491C149.502 150.936 148.936 151.592 148.515 152.458C148.098 153.325 147.89 154.388 147.89 155.647C147.89 156.907 148.098 157.97 148.515 158.836C148.936 159.703 149.502 160.358 150.212 160.803C150.927 161.249 151.725 161.471 152.606 161.471C153.487 161.471 154.282 161.249 154.992 160.803C155.707 160.358 156.273 159.703 156.69 158.836C157.111 157.97 157.322 156.907 157.322 155.647ZM173.522 148.374V162.92H171.817L163.891 151.499H163.749V162.92H161.988V148.374H163.692L171.647 159.823H171.789V148.374H173.522ZM187.16 162.92H182.672V148.374H187.359C188.77 148.374 189.977 148.666 190.981 149.248C191.985 149.826 192.754 150.657 193.289 151.741C193.824 152.82 194.092 154.113 194.092 155.619C194.092 157.134 193.822 158.438 193.282 159.532C192.743 160.621 191.957 161.459 190.924 162.046C189.892 162.629 188.637 162.92 187.16 162.92ZM184.433 161.357H187.047C188.249 161.357 189.246 161.125 190.037 160.661C190.827 160.197 191.417 159.537 191.805 158.68C192.193 157.823 192.387 156.802 192.387 155.619C192.387 154.445 192.196 153.434 191.812 152.586C191.429 151.734 190.856 151.08 190.093 150.626C189.331 150.167 188.382 149.937 187.245 149.937H184.433V161.357ZM209.319 155.647C209.319 157.181 209.042 158.507 208.488 159.624C207.934 160.742 207.174 161.604 206.208 162.21C205.243 162.816 204.139 163.119 202.899 163.119C201.658 163.119 200.555 162.816 199.589 162.21C198.623 161.604 197.863 160.742 197.309 159.624C196.755 158.507 196.478 157.181 196.478 155.647C196.478 154.113 196.755 152.787 197.309 151.67C197.863 150.552 198.623 149.691 199.589 149.085C200.555 148.479 201.658 148.176 202.899 148.176C204.139 148.176 205.243 148.479 206.208 149.085C207.174 149.691 207.934 150.552 208.488 151.67C209.042 152.787 209.319 154.113 209.319 155.647ZM207.615 155.647C207.615 154.388 207.404 153.325 206.983 152.458C206.566 151.592 206 150.936 205.285 150.491C204.575 150.046 203.779 149.823 202.899 149.823C202.018 149.823 201.22 150.046 200.505 150.491C199.795 150.936 199.229 151.592 198.808 152.458C198.391 153.325 198.183 154.388 198.183 155.647C198.183 156.907 198.391 157.97 198.808 158.836C199.229 159.703 199.795 160.358 200.505 160.803C201.22 161.249 202.018 161.471 202.899 161.471C203.779 161.471 204.575 161.249 205.285 160.803C206 160.358 206.566 159.703 206.983 158.836C207.404 157.97 207.615 156.907 207.615 155.647ZM212.281 162.92V148.374H214.042V161.357H220.804V162.92H212.281ZM223.531 162.92V148.374H225.292V161.357H232.054V162.92H223.531ZM236.295 162.92H234.449L239.79 148.374H241.608L246.949 162.92H245.102L240.756 150.676H240.642L236.295 162.92ZM236.977 157.238H244.42V158.801H236.977V157.238ZM249.214 162.92V148.374H254.129C255.266 148.374 256.198 148.569 256.928 148.957C257.657 149.34 258.196 149.868 258.547 150.541C258.897 151.213 259.072 151.978 259.072 152.835C259.072 153.692 258.897 154.452 258.547 155.115C258.196 155.777 257.659 156.298 256.935 156.677C256.21 157.051 255.285 157.238 254.158 157.238H250.18V155.647H254.101C254.877 155.647 255.502 155.534 255.976 155.306C256.454 155.079 256.8 154.757 257.013 154.34C257.231 153.919 257.339 153.417 257.339 152.835C257.339 152.252 257.231 151.743 257.013 151.308C256.795 150.872 256.447 150.536 255.969 150.299C255.491 150.058 254.858 149.937 254.072 149.937H250.976V162.92H249.214ZM256.061 156.386L259.641 162.92H257.595L254.072 156.386H256.061ZM269.962 152.011C269.877 151.291 269.531 150.732 268.925 150.335C268.319 149.937 267.576 149.738 266.695 149.738C266.051 149.738 265.488 149.842 265.005 150.051C264.526 150.259 264.152 150.545 263.882 150.91C263.617 151.275 263.485 151.689 263.485 152.153C263.485 152.541 263.577 152.875 263.762 153.154C263.951 153.429 264.193 153.659 264.486 153.843C264.78 154.023 265.087 154.172 265.409 154.291C265.731 154.404 266.027 154.497 266.297 154.568L267.775 154.965C268.153 155.065 268.575 155.202 269.039 155.377C269.507 155.552 269.955 155.792 270.381 156.095C270.812 156.393 271.167 156.776 271.446 157.245C271.726 157.714 271.865 158.289 271.865 158.971C271.865 159.757 271.659 160.467 271.248 161.102C270.84 161.736 270.244 162.24 269.458 162.615C268.676 162.989 267.727 163.176 266.61 163.176C265.568 163.176 264.666 163.008 263.904 162.671C263.146 162.335 262.55 161.866 262.114 161.265C261.683 160.664 261.439 159.965 261.382 159.17H263.201C263.248 159.719 263.433 160.174 263.755 160.534C264.081 160.889 264.493 161.154 264.99 161.329C265.492 161.499 266.032 161.585 266.61 161.585C267.282 161.585 267.886 161.476 268.421 161.258C268.956 161.035 269.38 160.728 269.692 160.335C270.005 159.937 270.161 159.473 270.161 158.943C270.161 158.46 270.026 158.067 269.756 157.764C269.486 157.461 269.131 157.214 268.691 157.025C268.25 156.836 267.775 156.67 267.263 156.528L265.473 156.017C264.337 155.69 263.437 155.223 262.775 154.617C262.112 154.011 261.78 153.218 261.78 152.238C261.78 151.424 262 150.713 262.441 150.107C262.886 149.497 263.482 149.023 264.23 148.687C264.983 148.346 265.824 148.176 266.752 148.176C267.689 148.176 268.523 148.344 269.252 148.68C269.981 149.011 270.559 149.466 270.985 150.044C271.416 150.621 271.643 151.277 271.667 152.011H269.962Z" fill="#B67238"/>
<defs>
<linearGradient id="paint0_linear_6562_39424" x1="171.5" y1="2" x2="171.5" y2="254" gradientUnits="userSpaceOnUse">
<stop stop-color="#F3361D"/>
<stop offset="0.273923" stop-color="#F3361D" stop-opacity="0"/>
<stop offset="0.730763" stop-color="#FF8C00" stop-opacity="0"/>
<stop offset="1" stop-color="#FF8C00"/>
</linearGradient>
<linearGradient id="paint1_linear_6562_39424" x1="171.5" y1="2" x2="171.5" y2="254" gradientUnits="userSpaceOnUse">
<stop stop-color="#F3361D"/>
<stop offset="0.34972" stop-color="#F3361D" stop-opacity="0"/>
<stop offset="0.619229" stop-color="#FF8C00" stop-opacity="0"/>
<stop offset="1" stop-color="#FF8C00"/>
</linearGradient>
</defs>
</svg>
