<svg width="256" height="256" viewBox="0 0 256 256" fill="none" xmlns="http://www.w3.org/2000/svg">
<path d="M65 2C65 49.25 128 78.7939 128 128M2 2C25.625 72.875 128 78.7939 128 128M128 128C128 78.7939 128 2 128 2V128ZM128 128V254M128 128C128 177.206 25.625 183.125 2 254M128 128C128 177.206 65 206.75 65 254M128 128C128 78.7939 230.375 72.875 254 2M128 128C128 78.7939 191 49.25 191 2M128 128C128 177.206 230.375 183.125 254 254M128 128C128 177.206 191 206.75 191 254" stroke="url(#paint0_linear_6463_6343)" stroke-opacity="0.5" stroke-width="3" stroke-linecap="round"/>
<path d="M65 2C65 49.25 128 78.7939 128 128M2 2C25.625 72.875 128 78.7939 128 128M128 128C128 78.7939 128 2 128 2V128ZM128 128V254M128 128C128 177.206 25.625 183.125 2 254M128 128C128 177.206 65 206.75 65 254M128 128C128 78.7939 230.375 72.875 254 2M128 128C128 78.7939 191 49.25 191 2M128 128C128 177.206 230.375 183.125 254 254M128 128C128 177.206 191 206.75 191 254" stroke="url(#paint1_linear_6463_6343)" stroke-width="3" stroke-linecap="round" stroke-dasharray="1 34"/>
<path d="M80.3224 100.169C79.0498 97.1301 75.9873 96.9455 72.4376 97.7402L71.0964 93.3907L68.4174 94.239L69.7234 98.4739C69.02 98.6964 68.3045 98.9379 67.5938 99.1783L66.2797 94.9153L63.6027 95.7624L64.9426 100.111C64.3663 100.306 63.8001 100.497 63.2449 100.673L63.2404 100.66L59.5459 101.828L60.4185 104.655C60.4185 104.655 62.3849 103.992 62.3632 104.038C63.4481 103.695 63.9939 104.206 64.2616 104.711L65.7897 109.666C65.8647 109.642 65.9633 109.615 66.0785 109.594L65.7963 109.684L67.9355 116.626C67.9919 116.979 67.9572 117.58 67.1996 117.821C67.2431 117.841 65.2525 118.437 65.2525 118.437L65.6957 121.768L69.1818 120.664C69.8307 120.46 70.4722 120.269 71.0993 120.075L72.4573 124.474L75.133 123.628L73.7914 119.275C74.53 119.058 75.2427 118.839 75.9366 118.618L77.2713 122.951L79.9496 122.103L78.5964 117.712C83.0205 116.031 85.827 113.912 84.9286 109.61C84.2067 106.144 82.1426 105.149 79.3991 105.351C80.7101 104.076 81.257 102.391 80.3224 100.169ZM79.475 110.761C80.4895 114.049 74.6807 115.477 72.865 116.053L71.0684 110.224C72.8843 109.65 78.4159 107.334 79.475 110.761ZM75.693 102.933C76.6144 105.924 71.7576 107.078 70.245 107.557L68.6151 102.271C70.1277 101.792 74.7314 99.8129 75.693 102.933Z" fill="#D4D4D8"/>
<path d="M142.285 100.683C141.805 96.1381 137.81 94.6722 132.777 94.3133L132.729 88L128.832 88.0593L128.879 94.2062C127.856 94.2215 126.809 94.2572 125.769 94.2933L125.722 88.1057L121.828 88.1642L121.874 94.4757C121.031 94.5054 120.203 94.5333 119.395 94.546L119.394 94.5265L114.02 94.6055L114.053 98.7098C114.053 98.7098 116.93 98.6124 116.882 98.6654C118.46 98.6421 118.982 99.5378 119.136 100.316L119.192 107.508C119.301 107.507 119.443 107.509 119.604 107.528L119.193 107.535L119.268 117.611C119.203 118.102 118.917 118.887 117.814 118.905C117.864 118.948 114.982 118.947 114.982 118.947L114.243 123.549L119.315 123.473C120.258 123.46 121.187 123.461 122.097 123.454L122.148 129.84L126.04 129.782L125.993 123.464C127.061 123.47 128.095 123.463 129.105 123.447L129.151 129.735L133.047 129.676L133 123.302C139.547 122.833 144.121 121.136 144.642 115.062C145.064 110.17 142.718 108.025 138.993 107.199C141.243 106.029 142.641 104.008 142.285 100.683ZM136.937 114.418C136.975 119.19 128.688 118.773 126.046 118.814L125.982 110.354C128.624 110.315 136.896 109.442 136.937 114.418ZM135.033 102.51C135.065 106.851 128.152 106.448 125.952 106.482L125.893 98.809C128.094 98.7754 134.999 97.9813 135.033 102.51Z" fill="#B67238"/>
<path d="M193.276 106.931C194.054 103.73 191.697 101.765 188.368 100.3L189.867 96.0022L187.207 95.0967L185.747 99.281C185.049 99.0431 184.33 98.8132 183.615 98.5854L185.085 94.3735L182.427 93.4681L180.927 97.7641C180.347 97.5796 179.778 97.3975 179.227 97.2101L179.231 97.1967L175.564 95.9462L174.59 98.7403C174.59 98.7403 176.566 99.3723 176.521 99.3968C177.598 99.764 177.735 100.499 177.651 101.064L175.943 105.96C176.017 105.986 176.113 106.022 176.218 106.074L175.938 105.979L173.543 112.837C173.38 113.154 172.995 113.618 172.242 113.363C172.266 113.404 170.309 112.704 170.309 112.704L168.691 115.649L172.152 116.828C172.796 117.048 173.426 117.274 174.046 117.49L172.53 121.838L175.187 122.743L176.688 118.442C177.411 118.706 178.115 118.952 178.804 119.186L177.31 123.466L179.969 124.372L181.484 120.033C186.042 121.304 189.559 121.262 191.387 117.265C192.861 114.046 191.789 112.021 189.46 110.556C191.271 110.307 192.711 109.275 193.276 106.931ZM186.313 114.958C185.18 118.206 179.656 115.912 177.852 115.299L179.862 109.54C181.665 110.155 187.493 111.57 186.313 114.958ZM187.91 106.411C186.878 109.366 182.283 107.415 180.781 106.904L182.603 101.681C184.105 102.192 188.986 103.329 187.91 106.411Z" fill="#D4D4D8"/>
<path d="M33.9787 148.294V162.84H32.2173V150.141H32.1321L28.581 152.499V150.709L32.2173 148.294H33.9787ZM43.2472 149.857V148.294H54.1562V149.857H49.5824V162.84H47.821V149.857H43.2472ZM56.8746 162.84V148.294H61.7894C62.9258 148.294 63.8585 148.489 64.5877 148.877C65.3169 149.26 65.8567 149.788 66.207 150.461C66.5574 151.133 66.7326 151.898 66.7326 152.755C66.7326 153.612 66.5574 154.372 66.207 155.034C65.8567 155.697 65.3192 156.218 64.5948 156.597C63.8704 156.971 62.9447 157.158 61.8178 157.158H57.8406V155.567H61.761C62.5375 155.567 63.1625 155.453 63.636 155.226C64.1142 154.999 64.4599 154.677 64.6729 154.26C64.8907 153.839 64.9996 153.337 64.9996 152.755C64.9996 152.172 64.8907 151.663 64.6729 151.228C64.4551 150.792 64.1071 150.456 63.6289 150.219C63.1507 149.978 62.5186 149.857 61.7326 149.857H58.636V162.84H56.8746ZM63.7212 156.306L67.3008 162.84H65.2553L61.7326 156.306H63.7212ZM71.429 148.294V162.84H69.6676V148.294H71.429ZM74.9606 162.84V148.294H76.7219V161.277H83.4833V162.84H74.9606ZM86.2106 162.84V148.294H87.9719V161.277H94.7333V162.84H86.2106ZM99.2219 148.294V162.84H97.4606V148.294H99.2219ZM115.026 155.567C115.026 157.101 114.749 158.427 114.195 159.544C113.641 160.662 112.881 161.524 111.915 162.13C110.95 162.736 109.846 163.039 108.606 163.039C107.365 163.039 106.262 162.736 105.296 162.13C104.33 161.524 103.57 160.662 103.016 159.544C102.462 158.427 102.185 157.101 102.185 155.567C102.185 154.033 102.462 152.707 103.016 151.59C103.57 150.472 104.33 149.611 105.296 149.005C106.262 148.399 107.365 148.096 108.606 148.096C109.846 148.096 110.95 148.399 111.915 149.005C112.881 149.611 113.641 150.472 114.195 151.59C114.749 152.707 115.026 154.033 115.026 155.567ZM113.322 155.567C113.322 154.308 113.111 153.245 112.69 152.378C112.273 151.512 111.707 150.856 110.992 150.411C110.282 149.966 109.487 149.743 108.606 149.743C107.725 149.743 106.927 149.966 106.212 150.411C105.502 150.856 104.936 151.512 104.515 152.378C104.098 153.245 103.89 154.308 103.89 155.567C103.89 156.827 104.098 157.89 104.515 158.756C104.936 159.623 105.502 160.278 106.212 160.723C106.927 161.168 107.725 161.391 108.606 161.391C109.487 161.391 110.282 161.168 110.992 160.723C111.707 160.278 112.273 159.623 112.69 158.756C113.111 157.89 113.322 156.827 113.322 155.567ZM129.522 148.294V162.84H127.817L119.891 151.419H119.749V162.84H117.988V148.294H119.692L127.647 159.743H127.789V148.294H129.522ZM143.16 162.84H138.672V148.294H143.359C144.77 148.294 145.977 148.586 146.981 149.168C147.985 149.746 148.754 150.577 149.289 151.661C149.824 152.74 150.092 154.033 150.092 155.539C150.092 157.054 149.822 158.358 149.282 159.452C148.743 160.541 147.957 161.379 146.924 161.966C145.892 162.549 144.637 162.84 143.16 162.84ZM140.433 161.277H143.047C144.249 161.277 145.246 161.045 146.037 160.581C146.827 160.117 147.417 159.457 147.805 158.6C148.193 157.743 148.387 156.722 148.387 155.539C148.387 154.364 148.196 153.354 147.812 152.506C147.429 151.654 146.856 151 146.093 150.546C145.331 150.087 144.382 149.857 143.245 149.857H140.433V161.277ZM165.319 155.567C165.319 157.101 165.042 158.427 164.488 159.544C163.934 160.662 163.174 161.524 162.208 162.13C161.243 162.736 160.139 163.039 158.899 163.039C157.658 163.039 156.555 162.736 155.589 162.13C154.623 161.524 153.863 160.662 153.309 159.544C152.755 158.427 152.478 157.101 152.478 155.567C152.478 154.033 152.755 152.707 153.309 151.59C153.863 150.472 154.623 149.611 155.589 149.005C156.555 148.399 157.658 148.096 158.899 148.096C160.139 148.096 161.243 148.399 162.208 149.005C163.174 149.611 163.934 150.472 164.488 151.59C165.042 152.707 165.319 154.033 165.319 155.567ZM163.615 155.567C163.615 154.308 163.404 153.245 162.983 152.378C162.566 151.512 162 150.856 161.285 150.411C160.575 149.966 159.779 149.743 158.899 149.743C158.018 149.743 157.22 149.966 156.505 150.411C155.795 150.856 155.229 151.512 154.808 152.378C154.391 153.245 154.183 154.308 154.183 155.567C154.183 156.827 154.391 157.89 154.808 158.756C155.229 159.623 155.795 160.278 156.505 160.723C157.22 161.168 158.018 161.391 158.899 161.391C159.779 161.391 160.575 161.168 161.285 160.723C162 160.278 162.566 159.623 162.983 158.756C163.404 157.89 163.615 156.827 163.615 155.567ZM168.281 162.84V148.294H170.042V161.277H176.804V162.84H168.281ZM179.531 162.84V148.294H181.292V161.277H188.054V162.84H179.531ZM192.295 162.84H190.449L195.79 148.294H197.608L202.949 162.84H201.102L196.756 150.596H196.642L192.295 162.84ZM192.977 157.158H200.42V158.721H192.977V157.158ZM205.214 162.84V148.294H210.129C211.266 148.294 212.198 148.489 212.928 148.877C213.657 149.26 214.196 149.788 214.547 150.461C214.897 151.133 215.072 151.898 215.072 152.755C215.072 153.612 214.897 154.372 214.547 155.034C214.196 155.697 213.659 156.218 212.935 156.597C212.21 156.971 211.285 157.158 210.158 157.158H206.18V155.567H210.101C210.877 155.567 211.502 155.453 211.976 155.226C212.454 154.999 212.8 154.677 213.013 154.26C213.231 153.839 213.339 153.337 213.339 152.755C213.339 152.172 213.231 151.663 213.013 151.228C212.795 150.792 212.447 150.456 211.969 150.219C211.491 149.978 210.858 149.857 210.072 149.857H206.976V162.84H205.214ZM212.061 156.306L215.641 162.84H213.595L210.072 156.306H212.061ZM225.962 151.931C225.877 151.211 225.531 150.652 224.925 150.255C224.319 149.857 223.576 149.658 222.695 149.658C222.051 149.658 221.488 149.762 221.005 149.971C220.526 150.179 220.152 150.465 219.882 150.83C219.617 151.194 219.485 151.609 219.485 152.073C219.485 152.461 219.577 152.795 219.762 153.074C219.951 153.349 220.193 153.578 220.486 153.763C220.78 153.943 221.087 154.092 221.409 154.211C221.731 154.324 222.027 154.417 222.297 154.488L223.775 154.885C224.153 154.985 224.575 155.122 225.039 155.297C225.507 155.472 225.955 155.712 226.381 156.015C226.812 156.313 227.167 156.696 227.446 157.165C227.726 157.634 227.865 158.209 227.865 158.891C227.865 159.677 227.659 160.387 227.248 161.022C226.84 161.656 226.244 162.16 225.458 162.534C224.676 162.908 223.727 163.096 222.61 163.096C221.568 163.096 220.666 162.927 219.904 162.591C219.146 162.255 218.55 161.786 218.114 161.185C217.683 160.584 217.439 159.885 217.382 159.09H219.201C219.248 159.639 219.433 160.094 219.755 160.453C220.081 160.809 220.493 161.074 220.99 161.249C221.492 161.419 222.032 161.505 222.61 161.505C223.282 161.505 223.886 161.396 224.421 161.178C224.956 160.955 225.38 160.648 225.692 160.255C226.005 159.857 226.161 159.393 226.161 158.863C226.161 158.38 226.026 157.987 225.756 157.684C225.486 157.381 225.131 157.134 224.691 156.945C224.25 156.756 223.775 156.59 223.263 156.448L221.473 155.936C220.337 155.61 219.437 155.143 218.775 154.537C218.112 153.931 217.78 153.138 217.78 152.158C217.78 151.344 218 150.633 218.441 150.027C218.886 149.417 219.482 148.943 220.23 148.607C220.983 148.266 221.824 148.096 222.752 148.096C223.689 148.096 224.523 148.264 225.252 148.6C225.981 148.931 226.559 149.386 226.985 149.963C227.416 150.541 227.643 151.197 227.667 151.931H225.962Z" fill="#B67238"/>
<defs>
<linearGradient id="paint0_linear_6463_6343" x1="128" y1="2" x2="128" y2="254" gradientUnits="userSpaceOnUse">
<stop stop-color="#F3361D"/>
<stop offset="0.273923" stop-color="#F3361D" stop-opacity="0"/>
<stop offset="0.730763" stop-color="#FF8C00" stop-opacity="0"/>
<stop offset="1" stop-color="#FF8C00"/>
</linearGradient>
<linearGradient id="paint1_linear_6463_6343" x1="128" y1="2" x2="128" y2="254" gradientUnits="userSpaceOnUse">
<stop stop-color="#F3361D"/>
<stop offset="0.34972" stop-color="#F3361D" stop-opacity="0"/>
<stop offset="0.619229" stop-color="#FF8C00" stop-opacity="0"/>
<stop offset="1" stop-color="#FF8C00"/>
</linearGradient>
</defs>
</svg>
