<svg width="466" height="458" viewBox="0 0 466 458" fill="none" xmlns="http://www.w3.org/2000/svg">
<g opacity="0.4">
<path d="M228.431 394.117C268.802 394.117 301.529 362.035 301.529 322.459C301.529 282.884 268.802 250.801 228.431 250.801C188.06 250.801 155.333 282.884 155.333 322.459C155.333 362.035 188.06 394.117 228.431 394.117Z" fill="white"/>
<path d="M257.969 10.2409C252.281 -3.04841 233.751 -3.51602 227.428 9.49439C174.616 118.153 224.096 155.203 277.949 195.527C320.363 227.287 365.49 261.077 365.49 333.485C365.49 402.253 306.172 458 233 458H424.69C450.739 422.648 466 379.741 466 333.485C466 246.465 437.321 199.661 353.435 136.659C290.539 89.421 282.506 69.818 265.774 28.986C263.407 23.2087 260.865 17.0065 257.969 10.2409Z" fill="white"/>
<path d="M233 458C159.828 458 100.51 402.253 100.51 333.485C100.51 276.228 110.619 222.163 138.111 173.842C146.907 158.383 133.049 138.956 117.162 147.367C47.0106 184.508 0 253.759 0 333.485C0 379.741 15.2612 422.648 41.3097 458L233 458Z" fill="white"/>
</g>
</svg>
