<svg width="456" height="100" viewBox="0 0 456 100" fill="none" xmlns="http://www.w3.org/2000/svg">
<path d="M70.0855 39.5497H59.5299M49.9796 60.4497H59.5299M59.5299 39.5497H52.6018C51.5534 39.5497 50.5345 39.8965 49.7038 40.5361L49.087 41.0111C46.6176 42.9126 46.6176 46.6368 49.087 48.5382L49.7038 49.0132C50.5345 49.6528 51.5534 49.9997 52.6018 49.9997H67.4633C68.5117 49.9997 69.5306 50.3465 70.3613 50.9861L70.9781 51.4611C73.4475 53.3626 73.4475 57.0868 70.9781 58.9882L70.3613 59.4632C69.5306 60.1028 68.5117 60.4497 67.4633 60.4497H59.5299M59.5299 39.5497V32.583M59.5299 60.4497V67.4163" stroke="#B96A1E" stroke-width="2" stroke-linecap="round"/>
<circle cx="60.0319" cy="49.9997" r="31.6667" stroke="#B96A1E" stroke-width="2"/>
<path d="M158.704 42.0247H150.648M143.36 57.9747H150.648M150.648 42.0247H145.361C144.561 42.0247 143.783 42.2894 143.149 42.7775L142.678 43.14C140.794 44.5911 140.794 47.4333 142.678 48.8844L143.149 49.2469C143.783 49.735 144.561 49.9997 145.361 49.9997H156.702C157.502 49.9997 158.28 50.2644 158.914 50.7525L159.385 51.115C161.269 52.5661 161.269 55.4083 159.385 56.8594L158.914 57.2219C158.28 57.71 157.502 57.9747 156.702 57.9747H150.648M150.648 42.0247V36.708M150.648 57.9747V63.2913" stroke="#B96A1E" stroke-width="2" stroke-linecap="round"/>
<circle cx="151.031" cy="49.9997" r="24.1667" stroke="#B96A1E" stroke-width="2"/>
<path d="M229.322 44.5007H223.766M218.74 55.5007H223.766M223.766 44.5007H220.12C219.568 44.5007 219.032 44.6832 218.594 45.0198L218.27 45.2698C216.97 46.2706 216.97 48.2307 218.27 49.2315L218.594 49.4815C219.032 49.8181 219.568 50.0007 220.12 50.0007H227.942C228.493 50.0007 229.03 50.1832 229.467 50.5198L229.791 50.7698C231.091 51.7706 231.091 53.7307 229.791 54.7315L229.467 54.9815C229.03 55.3181 228.493 55.5007 227.942 55.5007H223.766M223.766 44.5007V40.834M223.766 55.5007V59.1673" stroke="#B96A1E" stroke-width="2" stroke-linecap="round"/>
<circle cx="224.031" cy="50.0006" r="16.6667" stroke="#B96A1E" stroke-width="2"/>
<path d="M353.969 50H315.594H296.406M353.969 50L343.969 40L338.969 35M353.969 50L338.969 65M287.219 50H268.031" stroke="#B96A1E" stroke-width="2" stroke-linecap="round"/>
<path d="M412.378 73.5352H389.28C385.976 73.5352 384.323 72.375 384.323 70.0547C384.323 68.4375 384.807 66.7324 385.773 64.9395C386.758 63.1289 388.173 61.4326 390.019 59.8506C391.882 58.251 394.114 56.9502 396.716 55.9482C399.335 54.9463 402.288 54.4453 405.575 54.4453C408.106 54.4453 410.444 54.7617 412.589 55.3945C414.733 56.0273 416.649 56.8623 418.337 57.8994C417.985 58.1631 417.66 58.4355 417.361 58.7168C417.062 58.9805 416.772 59.2793 416.491 59.6133C415.05 58.7871 413.415 58.1191 411.587 57.6094C409.759 57.0996 407.755 56.8447 405.575 56.8447C402.604 56.8447 399.959 57.2754 397.639 58.1367C395.318 58.9805 393.35 60.0791 391.732 61.4326C390.133 62.7686 388.911 64.1836 388.067 65.6777C387.241 67.1719 386.828 68.5605 386.828 69.8438C386.828 70.3184 386.969 70.6523 387.25 70.8457C387.531 71.0391 388.023 71.1357 388.727 71.1357H411.982C412 71.5576 412.044 71.9619 412.114 72.3486C412.185 72.7529 412.272 73.1484 412.378 73.5352ZM405.549 50.8857C403.633 50.8857 401.893 50.3848 400.328 49.3828C398.781 48.3633 397.551 47.001 396.637 45.2959C395.723 43.5908 395.266 41.6836 395.266 39.5742C395.266 37.5352 395.731 35.6807 396.663 34.0107C397.595 32.3408 398.834 31.0137 400.381 30.0293C401.928 29.0273 403.65 28.5264 405.549 28.5264C407.43 28.5264 409.144 29.0273 410.69 30.0293C412.255 31.0312 413.503 32.376 414.435 34.0635C415.366 35.7334 415.823 37.5791 415.806 39.6006C415.806 41.71 415.34 43.6172 414.408 45.3223C413.494 47.0273 412.264 48.3809 410.717 49.3828C409.188 50.3848 407.465 50.8857 405.549 50.8857ZM405.549 48.4863C406.99 48.4863 408.291 48.0996 409.451 47.3262C410.629 46.5352 411.561 45.4717 412.246 44.1357C412.949 42.7822 413.301 41.2705 413.301 39.6006C413.318 38.001 412.976 36.5508 412.272 35.25C411.569 33.9316 410.629 32.8857 409.451 32.1123C408.273 31.3213 406.973 30.9258 405.549 30.9258C404.125 30.9258 402.824 31.3125 401.646 32.0859C400.469 32.8594 399.528 33.9053 398.825 35.2236C398.122 36.5244 397.771 37.9746 397.771 39.5742C397.771 41.2441 398.113 42.7559 398.799 44.1094C399.502 45.4453 400.442 46.5088 401.62 47.2998C402.798 48.0908 404.107 48.4863 405.549 48.4863ZM426.748 82.2363C425.078 82.2363 423.505 81.9111 422.028 81.2607C420.552 80.6279 419.251 79.749 418.126 78.624C417.001 77.499 416.122 76.1982 415.489 74.7217C414.856 73.2627 414.54 71.6895 414.54 70.002C414.54 67.7871 415.094 65.7568 416.201 63.9111C417.309 62.0479 418.785 60.5625 420.631 59.4551C422.477 58.3477 424.516 57.7939 426.748 57.7939C428.98 57.7939 431.02 58.3477 432.865 59.4551C434.711 60.5625 436.188 62.0391 437.295 63.8848C438.402 65.7305 438.956 67.7695 438.956 70.002C438.956 71.6719 438.631 73.2451 437.98 74.7217C437.348 76.1982 436.469 77.499 435.344 78.624C434.219 79.749 432.918 80.6279 431.441 81.2607C429.965 81.9111 428.4 82.2363 426.748 82.2363ZM426.748 77.833C427.117 77.833 427.407 77.7188 427.618 77.4902C427.847 77.2617 427.961 76.9717 427.961 76.6201V71.2148H433.34C433.691 71.2148 433.981 71.1094 434.21 70.8984C434.438 70.6875 434.553 70.3887 434.553 70.002C434.553 69.6328 434.438 69.334 434.21 69.1055C433.981 68.8945 433.691 68.7891 433.34 68.7891H427.961V63.4365C427.961 63.085 427.847 62.7949 427.618 62.5664C427.407 62.3379 427.117 62.2236 426.748 62.2236C426.379 62.2236 426.08 62.3379 425.852 62.5664C425.641 62.7949 425.535 63.085 425.535 63.4365V68.7891H420.156C419.805 68.7891 419.515 68.8945 419.286 69.1055C419.058 69.334 418.943 69.6328 418.943 70.002C418.943 70.3887 419.058 70.6875 419.286 70.8984C419.515 71.1094 419.805 71.2148 420.156 71.2148H425.535V76.6201C425.535 76.9717 425.641 77.2617 425.852 77.4902C426.08 77.7188 426.379 77.833 426.748 77.833Z" fill="#B96A1E"/>
<rect x="415" y="58" width="24" height="24" rx="12" fill="#B96A1E"/>
<path d="M423.829 76.6475C423.332 76.6475 422.956 76.513 422.701 76.2441C422.446 75.9798 422.318 75.5788 422.318 75.041V70.4062C422.318 69.873 422.446 69.4743 422.701 69.21C422.956 68.9411 423.332 68.8066 423.829 68.8066H429.947C430.444 68.8066 430.82 68.9411 431.075 69.21C431.335 69.4743 431.465 69.873 431.465 70.4062V75.041C431.465 75.5788 431.335 75.9798 431.075 76.2441C430.82 76.513 430.444 76.6475 429.947 76.6475H423.829ZM423.528 69.3672V67.3027C423.528 66.5143 423.683 65.8512 423.993 65.3135C424.303 64.7757 424.713 64.3701 425.224 64.0967C425.739 63.8187 426.295 63.6797 426.892 63.6797C427.489 63.6797 428.042 63.8187 428.553 64.0967C429.068 64.3701 429.48 64.7757 429.79 65.3135C430.104 65.8512 430.262 66.5143 430.262 67.3027V69.3672H428.97V67.1934C428.97 66.7103 428.874 66.3001 428.683 65.9629C428.496 65.6211 428.245 65.3636 427.931 65.1904C427.616 65.0127 427.27 64.9238 426.892 64.9238C426.513 64.9238 426.167 65.0127 425.853 65.1904C425.538 65.3636 425.285 65.6211 425.094 65.9629C424.907 66.3001 424.813 66.7103 424.813 67.1934V69.3672H423.528Z" fill="#FFF6DB"/>
</svg>
