<svg width="456" height="100" viewBox="0 0 456 100" fill="none" xmlns="http://www.w3.org/2000/svg">
<path d="M42.2344 65.2969C40.1615 65.2969 38.224 64.9115 36.4219 64.1406C34.6198 63.3698 33.0312 62.2969 31.6562 60.9219C30.2812 59.5469 29.2031 57.9583 28.4219 56.1562C27.651 54.3438 27.2656 52.401 27.2656 50.3281C27.2656 48.2656 27.651 46.3281 28.4219 44.5156C29.2031 42.7031 30.2812 41.1146 31.6562 39.75C33.0312 38.375 34.6198 37.3021 36.4219 36.5312C38.224 35.75 40.1615 35.3594 42.2344 35.3594C44.2969 35.3594 46.2344 35.75 48.0469 36.5312C49.8594 37.3021 51.4479 38.375 52.8125 39.75C54.1875 41.1146 55.2604 42.7031 56.0312 44.5156C56.8125 46.3281 57.2031 48.2656 57.2031 50.3281C57.2031 52.401 56.8125 54.3438 56.0312 56.1562C55.2604 57.9583 54.1875 59.5469 52.8125 60.9219C51.4479 62.2969 49.8594 63.3698 48.0469 64.1406C46.2344 64.9115 44.2969 65.2969 42.2344 65.2969ZM42.2344 63.0312C43.9948 63.0312 45.6406 62.6979 47.1719 62.0312C48.7031 61.375 50.0521 60.4688 51.2188 59.3125C52.3854 58.1458 53.2917 56.7969 53.9375 55.2656C54.5938 53.7344 54.9219 52.0885 54.9219 50.3281C54.9219 48.5781 54.5938 46.9375 53.9375 45.4062C53.2917 43.875 52.3854 42.526 51.2188 41.3594C50.0521 40.1927 48.7031 39.2812 47.1719 38.625C45.6406 37.9688 43.9948 37.6406 42.2344 37.6406C40.474 37.6406 38.8281 37.9688 37.2969 38.625C35.7656 39.2812 34.4167 40.1927 33.25 41.3594C32.0938 42.526 31.1875 43.875 30.5312 45.4062C29.875 46.9375 29.5469 48.5781 29.5469 50.3281C29.5469 52.0885 29.875 53.7344 30.5312 55.2656C31.1875 56.7969 32.0938 58.1458 33.25 59.3125C34.4167 60.4688 35.7656 61.375 37.2969 62.0312C38.8281 62.6979 40.474 63.0312 42.2344 63.0312ZM39.1562 56.7812C38.8542 56.7812 38.6094 56.6927 38.4219 56.5156C38.2448 56.3281 38.1562 56.0833 38.1562 55.7812V44.9375C38.1562 44.6354 38.2448 44.3906 38.4219 44.2031C38.6094 44.0156 38.8542 43.9219 39.1562 43.9219H42.7812C43.4896 43.9219 44.1302 44.0469 44.7031 44.2969C45.2865 44.5469 45.75 44.9115 46.0938 45.3906C46.4375 45.8594 46.6094 46.4323 46.6094 47.1094C46.6094 47.7656 46.3906 48.375 45.9531 48.9375C45.5156 49.4896 44.9375 49.8281 44.2188 49.9531V50.0312C45.125 50.1354 45.8594 50.474 46.4219 51.0469C46.9844 51.6198 47.2656 52.3438 47.2656 53.2188C47.2656 54.4062 46.8438 55.2969 46 55.8906C45.1562 56.4844 44.0938 56.7812 42.8125 56.7812H39.1562ZM39.7656 49.5H42C42.8229 49.5 43.526 49.3333 44.1094 49C44.7031 48.6667 45 48.1042 45 47.3125C45 46.5833 44.7448 46.0625 44.2344 45.75C43.724 45.4271 43.1094 45.2656 42.3906 45.2656H39.7656V49.5ZM39.7656 55.4375H42.5312C43.3854 55.4375 44.1146 55.2656 44.7188 54.9219C45.3333 54.5781 45.6406 53.9792 45.6406 53.125C45.6406 52.2604 45.3125 51.6615 44.6562 51.3281C44.0104 50.9844 43.25 50.8125 42.375 50.8125H39.7656V55.4375ZM40.0312 44.7188V42.5C40.0312 42.1875 40.1875 42.0312 40.5 42.0312C40.8229 42.0312 40.9844 42.1875 40.9844 42.5V44.7188H40.0312ZM42.375 44.7188V42.5C42.375 42.1875 42.5312 42.0312 42.8438 42.0312C43.1667 42.0312 43.3281 42.1875 43.3281 42.5V44.7188H42.375ZM40.0312 55.9688H40.9844V58.2656C40.9844 58.5677 40.8229 58.7188 40.5 58.7188C40.1875 58.7188 40.0312 58.5677 40.0312 58.2656V55.9688ZM42.375 55.9688H43.3281V58.2656C43.3281 58.5677 43.1667 58.7188 42.8438 58.7188C42.5312 58.7188 42.375 58.5677 42.375 58.2656V55.9688Z" fill="#B67238"/>
<path d="M103.922 73.4219C103.719 73.4219 103.484 73.375 103.219 73.2812C102.953 73.1875 102.703 73.0703 102.469 72.9297C99.4219 71.0859 96.8594 69.4922 94.7812 68.1484C92.7188 66.8203 91.0625 65.5625 89.8125 64.375C88.5625 63.1875 87.6562 61.9297 87.0938 60.6016C86.5469 59.2578 86.2734 57.6719 86.2734 55.8438V39.0859C86.2734 37.8984 86.4922 37.0391 86.9297 36.5078C87.3672 35.9609 88.1172 35.4766 89.1797 35.0547C90.0547 34.7266 91.0547 34.3438 92.1797 33.9062C93.3203 33.4688 94.5 33.0234 95.7188 32.5703C96.9375 32.1172 98.1094 31.6875 99.2344 31.2812C100.375 30.8594 101.375 30.4922 102.234 30.1797C102.516 30.1016 102.797 30.0312 103.078 29.9688C103.359 29.8906 103.641 29.8516 103.922 29.8516C104.219 29.8516 104.508 29.8828 104.789 29.9453C105.07 30.0078 105.352 30.0859 105.633 30.1797C106.508 30.4922 107.508 30.8594 108.633 31.2812C109.773 31.6875 110.953 32.1172 112.172 32.5703C113.391 33.0234 114.562 33.4688 115.688 33.9062C116.812 34.3438 117.812 34.7266 118.688 35.0547C119.75 35.4922 120.5 35.9766 120.938 36.5078C121.391 37.0391 121.617 37.8984 121.617 39.0859V55.8438C121.617 57.6719 121.344 59.2656 120.797 60.625C120.25 61.9688 119.352 63.2344 118.102 64.4219C116.867 65.6094 115.211 66.8672 113.133 68.1953C111.055 69.5391 108.477 71.1172 105.398 72.9297C105.164 73.0703 104.914 73.1875 104.648 73.2812C104.398 73.375 104.156 73.4219 103.922 73.4219ZM103.922 70.9609C104.125 70.9609 104.328 70.9141 104.531 70.8203C104.75 70.7422 104.961 70.625 105.164 70.4688C107.742 68.8281 109.93 67.4297 111.727 66.2734C113.539 65.1172 115.008 64.0312 116.133 63.0156C117.258 62 118.078 60.9062 118.594 59.7344C119.125 58.5625 119.391 57.1406 119.391 55.4688V39.5078C119.391 38.8516 119.305 38.3672 119.133 38.0547C118.977 37.7422 118.656 37.4922 118.172 37.3047C117.625 37.1016 116.914 36.8359 116.039 36.5078C115.164 36.1797 114.211 35.8281 113.18 35.4531C112.148 35.0625 111.117 34.6719 110.086 34.2812C109.055 33.8906 108.102 33.5312 107.227 33.2031C106.352 32.8594 105.648 32.5859 105.117 32.3828C104.867 32.2891 104.641 32.2188 104.438 32.1719C104.25 32.1094 104.078 32.0781 103.922 32.0781C103.797 32.0781 103.633 32.1016 103.43 32.1484C103.227 32.1953 103.008 32.2734 102.773 32.3828C102.227 32.5859 101.516 32.8516 100.641 33.1797C99.7656 33.5078 98.8125 33.8672 97.7812 34.2578C96.75 34.6484 95.7109 35.0391 94.6641 35.4297C93.6328 35.8047 92.6797 36.1641 91.8047 36.5078C90.9453 36.8359 90.2422 37.1016 89.6953 37.3047C89.2109 37.5078 88.8828 37.7656 88.7109 38.0781C88.5547 38.375 88.4766 38.8516 88.4766 39.5078V55.4688C88.4766 57.1406 88.7344 58.5703 89.25 59.7578C89.7812 60.9297 90.6094 62.0234 91.7344 63.0391C92.8594 64.0547 94.3203 65.1484 96.1172 66.3203C97.9297 67.4766 100.125 68.8594 102.703 70.4688C102.922 70.625 103.133 70.7422 103.336 70.8203C103.555 70.9141 103.75 70.9609 103.922 70.9609Z" fill="#B67238"/>
<path d="M96.8984 52.3555C96.8984 52.207 96.9727 52.0391 97.1211 51.8516L107.047 39.4062C107.211 39.1953 107.387 39.0898 107.574 39.0898C107.77 39.082 107.918 39.1562 108.02 39.3125C108.121 39.4688 108.121 39.6758 108.02 39.9336L104.645 49.0508H110.984C111.141 49.0508 111.262 49.0977 111.348 49.1914C111.434 49.2773 111.477 49.3789 111.477 49.4961C111.477 49.6445 111.402 49.8164 111.254 50.0117L101.328 62.457C101.164 62.6602 100.984 62.7617 100.789 62.7617C100.602 62.7695 100.457 62.6953 100.355 62.5391C100.254 62.3828 100.25 62.1758 100.344 61.918L103.73 52.8125H97.3906C97.2266 52.8125 97.1016 52.7695 97.0156 52.6836C96.9375 52.5898 96.8984 52.4805 96.8984 52.3555Z" fill="#B67238"/>
<path d="M147.625 44H174.759C174.848 44 174.892 43.8923 174.829 43.8293L170 39" stroke="#B67238" stroke-width="2" stroke-linecap="round"/>
<path d="M175 56H147.866C147.777 56 147.733 56.1077 147.796 56.1707L152.625 61" stroke="#B67238" stroke-width="2" stroke-linecap="round"/>
<rect x="195" y="18" width="64" height="64" rx="32" stroke="#B67238" stroke-width="2"/>
<path d="M228.091 31.9512C227.755 31.1493 226.659 31.1211 226.285 31.9061C223.161 38.4621 226.088 40.6976 229.273 43.1306C231.782 45.0469 234.451 47.0857 234.451 51.4545C234.451 55.6036 230.942 58.9672 226.614 58.9672C222.286 58.9672 218.778 55.6036 218.778 51.4545C218.778 47.9998 219.376 44.7378 221.002 41.8222C221.522 40.8895 220.703 39.7173 219.763 40.2248C215.614 42.4658 212.833 46.6441 212.833 51.4545C212.833 58.7513 219.003 64.6666 226.614 64.6666C234.226 64.6666 240.396 58.7513 240.396 51.4545C240.396 46.204 238.699 43.3801 233.738 39.5787C230.018 36.7286 229.543 35.5458 228.553 33.0822C228.413 32.7336 228.263 32.3594 228.091 31.9512Z" fill="#B67238"/>
<path d="M226.344 55.1127C228.732 55.1127 230.668 53.177 230.668 50.7891C230.668 48.4013 228.732 46.4656 226.344 46.4656C223.956 46.4656 222.021 48.4013 222.021 50.7891C222.021 53.177 223.956 55.1127 226.344 55.1127Z" fill="#B67238"/>
<path d="M279 44H306.134C306.223 44 306.267 43.8923 306.204 43.8293L301.375 39" stroke="#B67238" stroke-width="2" stroke-linecap="round"/>
<path d="M306.375 56H279.241C279.152 56 279.108 56.1077 279.171 56.1707L284 61" stroke="#B67238" stroke-width="2" stroke-linecap="round"/>
<path d="M349.672 73.4219C349.469 73.4219 349.234 73.375 348.969 73.2812C348.703 73.1875 348.453 73.0703 348.219 72.9297C345.172 71.0859 342.609 69.4922 340.531 68.1484C338.469 66.8203 336.812 65.5625 335.562 64.375C334.312 63.1875 333.406 61.9297 332.844 60.6016C332.297 59.2578 332.023 57.6719 332.023 55.8438V39.0859C332.023 37.8984 332.242 37.0391 332.68 36.5078C333.117 35.9609 333.867 35.4766 334.93 35.0547C335.805 34.7266 336.805 34.3438 337.93 33.9062C339.07 33.4688 340.25 33.0234 341.469 32.5703C342.688 32.1172 343.859 31.6875 344.984 31.2812C346.125 30.8594 347.125 30.4922 347.984 30.1797C348.266 30.1016 348.547 30.0312 348.828 29.9688C349.109 29.8906 349.391 29.8516 349.672 29.8516C349.969 29.8516 350.258 29.8828 350.539 29.9453C350.82 30.0078 351.102 30.0859 351.383 30.1797C352.258 30.4922 353.258 30.8594 354.383 31.2812C355.523 31.6875 356.703 32.1172 357.922 32.5703C359.141 33.0234 360.312 33.4688 361.438 33.9062C362.562 34.3438 363.562 34.7266 364.438 35.0547C365.5 35.4922 366.25 35.9766 366.688 36.5078C367.141 37.0391 367.367 37.8984 367.367 39.0859V55.8438C367.367 57.6719 367.094 59.2656 366.547 60.625C366 61.9688 365.102 63.2344 363.852 64.4219C362.617 65.6094 360.961 66.8672 358.883 68.1953C356.805 69.5391 354.227 71.1172 351.148 72.9297C350.914 73.0703 350.664 73.1875 350.398 73.2812C350.148 73.375 349.906 73.4219 349.672 73.4219ZM349.672 70.9609C349.875 70.9609 350.078 70.9141 350.281 70.8203C350.5 70.7422 350.711 70.625 350.914 70.4688C353.492 68.8281 355.68 67.4297 357.477 66.2734C359.289 65.1172 360.758 64.0312 361.883 63.0156C363.008 62 363.828 60.9062 364.344 59.7344C364.875 58.5625 365.141 57.1406 365.141 55.4688V39.5078C365.141 38.8516 365.055 38.3672 364.883 38.0547C364.727 37.7422 364.406 37.4922 363.922 37.3047C363.375 37.1016 362.664 36.8359 361.789 36.5078C360.914 36.1797 359.961 35.8281 358.93 35.4531C357.898 35.0625 356.867 34.6719 355.836 34.2812C354.805 33.8906 353.852 33.5312 352.977 33.2031C352.102 32.8594 351.398 32.5859 350.867 32.3828C350.617 32.2891 350.391 32.2188 350.188 32.1719C350 32.1094 349.828 32.0781 349.672 32.0781C349.547 32.0781 349.383 32.1016 349.18 32.1484C348.977 32.1953 348.758 32.2734 348.523 32.3828C347.977 32.5859 347.266 32.8516 346.391 33.1797C345.516 33.5078 344.562 33.8672 343.531 34.2578C342.5 34.6484 341.461 35.0391 340.414 35.4297C339.383 35.8047 338.43 36.1641 337.555 36.5078C336.695 36.8359 335.992 37.1016 335.445 37.3047C334.961 37.5078 334.633 37.7656 334.461 38.0781C334.305 38.375 334.227 38.8516 334.227 39.5078V55.4688C334.227 57.1406 334.484 58.5703 335 59.7578C335.531 60.9297 336.359 62.0234 337.484 63.0391C338.609 64.0547 340.07 65.1484 341.867 66.3203C343.68 67.4766 345.875 68.8594 348.453 70.4688C348.672 70.625 348.883 70.7422 349.086 70.8203C349.305 70.9141 349.5 70.9609 349.672 70.9609Z" fill="#B67238"/>
<path d="M342.648 52.3555C342.648 52.207 342.723 52.0391 342.871 51.8516L352.797 39.4062C352.961 39.1953 353.137 39.0898 353.324 39.0898C353.52 39.082 353.668 39.1562 353.77 39.3125C353.871 39.4688 353.871 39.6758 353.77 39.9336L350.395 49.0508H356.734C356.891 49.0508 357.012 49.0977 357.098 49.1914C357.184 49.2773 357.227 49.3789 357.227 49.4961C357.227 49.6445 357.152 49.8164 357.004 50.0117L347.078 62.457C346.914 62.6602 346.734 62.7617 346.539 62.7617C346.352 62.7695 346.207 62.6953 346.105 62.5391C346.004 62.3828 346 62.1758 346.094 61.918L349.48 52.8125H343.141C342.977 52.8125 342.852 52.7695 342.766 52.6836C342.688 52.5898 342.648 52.4805 342.648 52.3555Z" fill="#B67238"/>
<path d="M415.234 51.4219L417.438 50.0938L425.469 54.7656C426.021 55.0781 426.417 55.3802 426.656 55.6719C426.896 55.9531 427.016 56.2865 427.016 56.6719C427.016 57.0469 426.896 57.3802 426.656 57.6719C426.417 57.9531 426.021 58.2552 425.469 58.5781L413.828 65.3281C413.495 65.526 413.188 65.6719 412.906 65.7656C412.635 65.8594 412.359 65.9062 412.078 65.9062C411.797 65.9062 411.521 65.8594 411.25 65.7656C410.979 65.6719 410.672 65.526 410.328 65.3281L398.688 58.5781C398.135 58.2552 397.74 57.9531 397.5 57.6719C397.26 57.3802 397.141 57.0469 397.141 56.6719C397.141 56.2865 397.26 55.9531 397.5 55.6719C397.74 55.3802 398.135 55.0781 398.688 54.7656L407.047 49.9219L409.281 51.2031L400.062 56.4844C399.979 56.5365 399.938 56.599 399.938 56.6719C399.938 56.7344 399.979 56.7917 400.062 56.8438L411.453 63.375C411.693 63.5 411.901 63.5625 412.078 63.5625C412.255 63.5625 412.469 63.5 412.719 63.375L424.109 56.8438C424.193 56.7917 424.234 56.7344 424.234 56.6719C424.234 56.599 424.193 56.5365 424.109 56.4844L415.234 51.4219ZM412.078 53.75C411.797 53.75 411.521 53.7031 411.25 53.6094C410.979 53.5156 410.672 53.3698 410.328 53.1719L398.688 46.4062C398.135 46.0833 397.74 45.7812 397.5 45.5C397.26 45.2188 397.141 44.8854 397.141 44.5C397.141 44.1146 397.26 43.7812 397.5 43.5C397.74 43.2188 398.135 42.9167 398.688 42.5938L410.328 35.8281C410.672 35.6302 410.979 35.4844 411.25 35.3906C411.521 35.2969 411.797 35.25 412.078 35.25C412.359 35.25 412.635 35.2969 412.906 35.3906C413.188 35.4844 413.495 35.6302 413.828 35.8281L425.469 42.5938C426.021 42.9167 426.417 43.2188 426.656 43.5C426.896 43.7812 427.016 44.1146 427.016 44.5C427.016 44.8854 426.896 45.2188 426.656 45.5C426.417 45.7812 426.021 46.0833 425.469 46.4062L413.828 53.1719C413.495 53.3698 413.188 53.5156 412.906 53.6094C412.635 53.7031 412.359 53.75 412.078 53.75Z" fill="#B67238"/>
</svg>
