<svg width="29" height="29" viewBox="0 0 29 29" fill="none" xmlns="http://www.w3.org/2000/svg">
<g id="BTC">
<path id="Vector" d="M28.4105 17.8811C26.5406 25.3812 18.9439 29.9452 11.443 28.0753C3.94551 26.2054 -0.618925 18.6087 1.25139 11.109C3.12039 3.60809 10.7167 -0.956786 18.2155 0.913089C25.716 2.78296 30.2804 10.3806 28.4105 17.8811Z" fill="#F7931A"/>
<path id="Vector_2" d="M21.0036 12.4994C21.2818 10.6365 19.8635 9.63507 17.924 8.96701L18.5532 6.44351L17.0167 6.0607L16.4042 8.5177C16.0008 8.41707 15.586 8.32213 15.1739 8.22807L15.7908 5.75488L14.2556 5.37207L13.626 7.8947C13.2918 7.81857 12.9637 7.74332 12.6452 7.66413L12.6469 7.65626L10.5285 7.12732L10.1199 8.76795C10.1199 8.76795 11.2596 9.02913 11.2355 9.04532C11.8577 9.20063 11.9705 9.61232 11.9513 9.93869L11.2347 12.8135C11.2775 12.8244 11.3331 12.8402 11.3943 12.8647L11.2325 12.8244L10.2275 16.8516C10.1514 17.0406 9.95847 17.3241 9.52359 17.2165C9.53891 17.2388 8.40709 16.9378 8.40709 16.9378L7.64453 18.6966L9.64391 19.1949C10.0158 19.2881 10.3802 19.3856 10.7385 19.4775L10.1028 22.0303L11.6372 22.4131L12.2672 19.8879C12.6858 20.0016 13.0927 20.1066 13.4908 20.2055L12.8635 22.7189L14.3995 23.1018L15.0352 20.5542C17.6545 21.0499 19.6246 20.8499 20.4528 18.4813C21.1208 16.5738 20.42 15.4735 19.0418 14.7556C20.0455 14.5233 20.8019 13.8631 21.0036 12.4994ZM17.4935 17.4208C17.0184 19.3283 13.8072 18.2976 12.7655 18.0386L13.609 14.6571C14.6502 14.917 17.9883 15.4315 17.4935 17.4208ZM17.9682 12.4718C17.5351 14.2069 14.862 13.3254 13.9944 13.1093L14.7592 10.0424C15.6267 10.2585 18.4197 10.6619 17.9682 12.4718Z" fill="white"/>
</g>
</svg>
