<svg width="421" height="20" viewBox="0 0 421 20" fill="none" xmlns="http://www.w3.org/2000/svg">
<path d="M1.87101 15.5V3.86364H5.80282C6.7157 3.86364 7.46191 4.02841 8.04146 4.35795C8.62479 4.68371 9.05661 5.125 9.33691 5.68182C9.61722 6.23864 9.75737 6.85985 9.75737 7.54545C9.75737 8.23106 9.61722 8.85417 9.33691 9.41477C9.0604 9.97538 8.63237 10.4223 8.05282 10.7557C7.47328 11.0852 6.73085 11.25 5.82555 11.25H3.00737V10H5.7801C6.4051 10 6.90699 9.89205 7.28578 9.67614C7.66457 9.46023 7.93919 9.16856 8.10964 8.80114C8.28388 8.42992 8.37101 8.01136 8.37101 7.54545C8.37101 7.07955 8.28388 6.66288 8.10964 6.29545C7.93919 5.92803 7.66267 5.64015 7.2801 5.43182C6.89752 5.2197 6.38994 5.11364 5.75737 5.11364H3.2801V15.5H1.87101ZM15.2971 15.6818C14.5093 15.6818 13.818 15.4943 13.2233 15.1193C12.6324 14.7443 12.1702 14.2197 11.8369 13.5455C11.5074 12.8712 11.3426 12.0833 11.3426 11.1818C11.3426 10.2727 11.5074 9.47917 11.8369 8.80114C12.1702 8.12311 12.6324 7.59659 13.2233 7.22159C13.818 6.84659 14.5093 6.65909 15.2971 6.65909C16.085 6.65909 16.7744 6.84659 17.3653 7.22159C17.96 7.59659 18.4221 8.12311 18.7517 8.80114C19.085 9.47917 19.2517 10.2727 19.2517 11.1818C19.2517 12.0833 19.085 12.8712 18.7517 13.5455C18.4221 14.2197 17.96 14.7443 17.3653 15.1193C16.7744 15.4943 16.085 15.6818 15.2971 15.6818ZM15.2971 14.4773C15.8956 14.4773 16.3881 14.3239 16.7744 14.017C17.1608 13.7102 17.4468 13.3068 17.6324 12.8068C17.818 12.3068 17.9108 11.7652 17.9108 11.1818C17.9108 10.5985 17.818 10.0549 17.6324 9.55114C17.4468 9.04735 17.1608 8.64015 16.7744 8.32955C16.3881 8.01894 15.8956 7.86364 15.2971 7.86364C14.6987 7.86364 14.2062 8.01894 13.8199 8.32955C13.4335 8.64015 13.1475 9.04735 12.9619 9.55114C12.7763 10.0549 12.6835 10.5985 12.6835 11.1818C12.6835 11.7652 12.7763 12.3068 12.9619 12.8068C13.1475 13.3068 13.4335 13.7102 13.8199 14.017C14.2062 14.3239 14.6987 14.4773 15.2971 14.4773ZM22.979 15.5L20.3199 6.77273H21.729L23.6153 13.4545H23.7062L25.5699 6.77273H27.0017L28.8426 13.4318H28.9335L30.8199 6.77273H32.229L29.5699 15.5H28.2517L26.3426 8.79545H26.2062L24.2971 15.5H22.979ZM37.3639 15.6818C36.523 15.6818 35.7976 15.4962 35.1878 15.125C34.5817 14.75 34.1139 14.2273 33.7844 13.5568C33.4586 12.8826 33.2957 12.0985 33.2957 11.2045C33.2957 10.3106 33.4586 9.52273 33.7844 8.84091C34.1139 8.1553 34.5722 7.62121 35.1594 7.23864C35.7503 6.85227 36.4397 6.65909 37.2275 6.65909C37.6821 6.65909 38.1309 6.73485 38.5741 6.88636C39.0173 7.03788 39.4207 7.28409 39.7844 7.625C40.148 7.96212 40.4378 8.40909 40.6537 8.96591C40.8696 9.52273 40.9775 10.2083 40.9775 11.0227V11.5909H34.2503V10.4318H39.6139C39.6139 9.93939 39.5154 9.5 39.3184 9.11364C39.1253 8.72727 38.8488 8.42235 38.4889 8.19886C38.1328 7.97538 37.7124 7.86364 37.2275 7.86364C36.6934 7.86364 36.2313 7.99621 35.8412 8.26136C35.4548 8.52273 35.1575 8.86364 34.9491 9.28409C34.7408 9.70455 34.6366 10.1553 34.6366 10.6364V11.4091C34.6366 12.0682 34.7503 12.6269 34.9775 13.0852C35.2086 13.5398 35.5287 13.8864 35.9378 14.125C36.3469 14.3598 36.8222 14.4773 37.3639 14.4773C37.7162 14.4773 38.0344 14.428 38.3184 14.3295C38.6063 14.2273 38.8544 14.0758 39.0628 13.875C39.2711 13.6705 39.4321 13.4167 39.5457 13.1136L40.8412 13.4773C40.7048 13.9167 40.4756 14.303 40.1537 14.6364C39.8317 14.9659 39.434 15.2235 38.9605 15.4091C38.487 15.5909 37.9548 15.6818 37.3639 15.6818ZM43.0173 15.5V6.77273H44.3128V8.09091H44.4037C44.5628 7.65909 44.8506 7.30871 45.2673 7.03977C45.684 6.77083 46.1537 6.63636 46.6764 6.63636C46.7749 6.63636 46.898 6.63826 47.0457 6.64205C47.1934 6.64583 47.3052 6.65152 47.3809 6.65909V8.02273C47.3355 8.01136 47.2313 7.99432 47.0684 7.97159C46.9094 7.94508 46.7408 7.93182 46.5628 7.93182C46.1385 7.93182 45.7597 8.02083 45.4264 8.19886C45.0969 8.37311 44.8355 8.61553 44.6423 8.92614C44.4529 9.23295 44.3582 9.58333 44.3582 9.97727V15.5H43.0173ZM52.3639 15.6818C51.523 15.6818 50.7976 15.4962 50.1878 15.125C49.5817 14.75 49.1139 14.2273 48.7844 13.5568C48.4586 12.8826 48.2957 12.0985 48.2957 11.2045C48.2957 10.3106 48.4586 9.52273 48.7844 8.84091C49.1139 8.1553 49.5722 7.62121 50.1594 7.23864C50.7503 6.85227 51.4397 6.65909 52.2275 6.65909C52.6821 6.65909 53.1309 6.73485 53.5741 6.88636C54.0173 7.03788 54.4207 7.28409 54.7844 7.625C55.148 7.96212 55.4378 8.40909 55.6537 8.96591C55.8696 9.52273 55.9775 10.2083 55.9775 11.0227V11.5909H49.2503V10.4318H54.6139C54.6139 9.93939 54.5154 9.5 54.3184 9.11364C54.1253 8.72727 53.8488 8.42235 53.4889 8.19886C53.1328 7.97538 52.7124 7.86364 52.2275 7.86364C51.6934 7.86364 51.2313 7.99621 50.8412 8.26136C50.4548 8.52273 50.1575 8.86364 49.9491 9.28409C49.7408 9.70455 49.6366 10.1553 49.6366 10.6364V11.4091C49.6366 12.0682 49.7503 12.6269 49.9775 13.0852C50.2086 13.5398 50.5287 13.8864 50.9378 14.125C51.3469 14.3598 51.8222 14.4773 52.3639 14.4773C52.7162 14.4773 53.0344 14.428 53.3184 14.3295C53.6063 14.2273 53.8544 14.0758 54.0628 13.875C54.2711 13.6705 54.4321 13.4167 54.5457 13.1136L55.8412 13.4773C55.7048 13.9167 55.4756 14.303 55.1537 14.6364C54.8317 14.9659 54.434 15.2235 53.9605 15.4091C53.487 15.5909 52.9548 15.6818 52.3639 15.6818ZM61.3128 15.6818C60.5855 15.6818 59.9434 15.4981 59.3866 15.1307C58.8298 14.7595 58.3942 14.2367 58.0798 13.5625C57.7654 12.8845 57.6082 12.0833 57.6082 11.1591C57.6082 10.2424 57.7654 9.44697 58.0798 8.77273C58.3942 8.09848 58.8317 7.57765 59.3923 7.21023C59.9529 6.8428 60.6006 6.65909 61.3355 6.65909C61.9037 6.65909 62.3525 6.75379 62.6821 6.94318C63.0154 7.12879 63.2692 7.34091 63.4434 7.57955C63.6215 7.81439 63.7597 8.00758 63.8582 8.15909H63.9719V3.86364H65.3128V15.5H64.0173V14.1591H63.8582C63.7597 14.3182 63.6196 14.5189 63.4378 14.7614C63.2559 15 62.9965 15.214 62.6594 15.4034C62.3222 15.589 61.8734 15.6818 61.3128 15.6818ZM61.4946 14.4773C62.0325 14.4773 62.487 14.3371 62.8582 14.0568C63.2294 13.7727 63.5116 13.3807 63.7048 12.8807C63.898 12.3769 63.9946 11.7955 63.9946 11.1364C63.9946 10.4848 63.8999 9.91477 63.7105 9.42614C63.5211 8.93371 63.2408 8.55114 62.8696 8.27841C62.4984 8.00189 62.04 7.86364 61.4946 7.86364C60.9264 7.86364 60.4529 8.00947 60.0741 8.30114C59.6991 8.58902 59.4169 8.98106 59.2275 9.47727C59.0419 9.9697 58.9491 10.5227 58.9491 11.1364C58.9491 11.7576 59.0438 12.322 59.2332 12.8295C59.4264 13.3333 59.7105 13.7348 60.0855 14.0341C60.4643 14.3295 60.934 14.4773 61.4946 14.4773ZM72.6366 15.5V3.86364H76.7048C77.5154 3.86364 78.184 4.00379 78.7105 4.28409C79.237 4.56061 79.6291 4.93371 79.8866 5.40341C80.1442 5.86932 80.273 6.38636 80.273 6.95455C80.273 7.45455 80.184 7.86742 80.0059 8.19318C79.8317 8.51894 79.6006 8.77652 79.3128 8.96591C79.0287 9.1553 78.72 9.29545 78.3866 9.38636V9.5C78.7427 9.52273 79.1006 9.64773 79.4605 9.875C79.8203 10.1023 80.1215 10.428 80.3639 10.8523C80.6063 11.2765 80.7275 11.7955 80.7275 12.4091C80.7275 12.9924 80.595 13.517 80.3298 13.983C80.0647 14.4489 79.6461 14.8182 79.0741 15.0909C78.5022 15.3636 77.7578 15.5 76.8412 15.5H72.6366ZM74.0457 14.25H76.8412C77.7616 14.25 78.415 14.072 78.8014 13.7159C79.1916 13.3561 79.3866 12.9205 79.3866 12.4091C79.3866 12.0152 79.2863 11.6515 79.0855 11.3182C78.8847 10.9811 78.5988 10.7121 78.2275 10.5114C77.8563 10.3068 77.4169 10.2045 76.9094 10.2045H74.0457V14.25ZM74.0457 8.97727H76.6594C77.0836 8.97727 77.4662 8.89394 77.8071 8.72727C78.1518 8.56061 78.4245 8.32576 78.6253 8.02273C78.8298 7.7197 78.9321 7.36364 78.9321 6.95455C78.9321 6.44318 78.7541 6.00947 78.398 5.65341C78.0419 5.29356 77.4775 5.11364 76.7048 5.11364H74.0457V8.97727ZM83.7247 18.7727C83.4974 18.7727 83.2948 18.7538 83.1167 18.7159C82.9387 18.6818 82.8156 18.6477 82.7474 18.6136L83.0883 17.4318C83.4141 17.5152 83.702 17.5455 83.952 17.5227C84.202 17.5 84.4236 17.3883 84.6167 17.1875C84.8137 16.9905 84.9936 16.6705 85.1565 16.2273L85.4065 15.5455L82.1792 6.77273H83.6338L86.0429 13.7273H86.1338L88.5429 6.77273H89.9974L86.2929 16.7727C86.1262 17.2235 85.9198 17.5966 85.6736 17.892C85.4273 18.1913 85.1414 18.4129 84.8156 18.5568C84.4936 18.7008 84.13 18.7727 83.7247 18.7727Z" fill="#451E17"/>
<path fill-rule="evenodd" clip-rule="evenodd" d="M132.43 12.7198C132.43 14.2627 131.614 15.1484 130.009 15.1484H126.171V13.3198H129.554C130.049 13.3198 130.29 13.1341 130.29 12.6627C130.29 12.277 130.022 12.0342 129.434 11.5913L127.428 9.93411C126.411 9.10553 125.983 8.33408 125.983 7.41978C125.983 5.86267 126.839 5.14844 128.524 5.14844H132.269V6.97698H128.899C128.377 6.97698 128.123 7.1627 128.123 7.64842C128.123 8.01986 128.391 8.26272 128.993 8.69123L130.985 10.177C132.002 10.9198 132.43 11.8199 132.43 12.7198Z" fill="#451E17"/>
<path fill-rule="evenodd" clip-rule="evenodd" d="M140.278 6.97703H137.852V15.1484H135.696V6.97703H133.271V5.14844H140.278V6.97703Z" fill="#451E17"/>
<path fill-rule="evenodd" clip-rule="evenodd" d="M146.062 11.5484L144.776 7.59121L143.476 11.5484H146.062ZM146.613 13.2198H142.912L142.282 15.1484H139.998L143.66 5.14844H145.865L149.527 15.1484H147.243L146.613 13.2198Z" fill="#451E17"/>
<path fill-rule="evenodd" clip-rule="evenodd" d="M153.163 9.86268C154.34 9.86268 154.687 9.41982 154.687 8.36272C154.687 7.30556 154.34 6.86269 153.163 6.86269H152.227V9.86268H153.163ZM157.094 15.1484H154.941L154.527 13.2341C154.259 11.9056 154.019 11.5484 153.083 11.5341H152.227V15.1484H150.087V5.14844H153.925C155.917 5.14844 156.827 6.09125 156.827 8.14836C156.827 9.53417 156.319 10.377 155.289 10.7198C156.025 11.0913 156.385 11.8342 156.68 13.2341L157.094 15.1484Z" fill="#451E17"/>
<path fill-rule="evenodd" clip-rule="evenodd" d="M160.58 9.99133L163.901 5.14844H166.389L162.898 9.99133L166.624 15.1484H164.136L160.58 9.99133ZM158.496 15.1484H160.58V5.14844H158.496V15.1484Z" fill="#451E17"/>
<path fill-rule="evenodd" clip-rule="evenodd" d="M180.356 5.14844L177.559 15.1484H176.252L174.044 7.14841L171.835 15.1484H170.515L167.744 5.14844H169.025L171.208 13.5913L173.521 5.14844H174.567L176.88 13.5913L179.076 5.14844H180.356Z" fill="#451E17"/>
<path fill-rule="evenodd" clip-rule="evenodd" d="M185.899 11.5913L184.148 6.57697L182.383 11.5913H185.899ZM186.23 12.5485H182.052L181.137 15.1484H179.797L183.498 5.14844H184.784L188.485 15.1484H187.146L186.23 12.5485Z" fill="#451E17"/>
<path fill-rule="evenodd" clip-rule="evenodd" d="M192.509 10.0484C193.98 10.0484 194.529 9.43417 194.529 8.09129C194.529 6.77698 193.98 6.14846 192.509 6.14846H190.837V10.0484H192.509ZM196.053 15.1484H194.809L194.475 13.4341C194.141 11.6484 193.726 11.0484 192.469 11.0199H190.837V15.1484H189.607V5.14844H192.924C194.89 5.14844 195.759 6.07696 195.759 7.977C195.759 9.40553 195.211 10.277 194.06 10.5627C194.97 10.9341 195.384 11.777 195.705 13.4341L196.053 15.1484Z" fill="#451E17"/>
<path d="M199.237 6.20554V9.24839H203.356V10.2341H199.237V12.377C199.237 13.5628 199.716 14.0913 200.805 14.0913H203.901V15.1484H200.619C198.679 15.1484 198.015 14.4627 198.015 12.4913V5.14844H203.901V6.20554H199.237Z" fill="#451E17"/>
<path fill-rule="evenodd" clip-rule="evenodd" d="M111.957 11.2825L110.372 13.0498C110.371 13.0508 110.37 13.0519 110.368 13.0527C110.364 13.0555 110.36 13.0571 110.355 13.0571C110.341 13.0571 110.33 13.0446 110.33 13.0292C110.33 13.0262 110.33 13.0231 110.331 13.0203C110.331 13.0202 110.331 13.0204 110.331 13.0203L110.934 10.5124C110.986 10.3326 110.947 10.128 110.819 9.98537L109.234 8.21803C109.234 8.2169 109.233 8.21583 109.232 8.2145C109.229 8.21023 109.228 8.20503 109.228 8.1995C109.228 8.1841 109.239 8.17163 109.253 8.17163C109.256 8.17163 109.258 8.17217 109.261 8.1731L111.51 8.84543C111.671 8.90277 111.855 8.86017 111.983 8.7175L113.568 6.9503C113.569 6.94923 113.57 6.9481 113.571 6.9473C113.575 6.9445 113.58 6.9429 113.585 6.9429C113.598 6.9429 113.609 6.95537 113.609 6.97077C113.609 6.9739 113.609 6.9769 113.608 6.9797L113.005 9.48757C112.954 9.6673 112.992 9.87203 113.12 10.0146L114.705 11.782C114.706 11.7831 114.707 11.7842 114.708 11.7854C114.71 11.7898 114.712 11.795 114.712 11.8005C114.712 11.8158 114.7 11.8283 114.687 11.8283C114.684 11.8283 114.681 11.8278 114.679 11.8269C114.678 11.8269 114.679 11.8269 114.679 11.8269L112.429 11.1546C112.268 11.0972 112.084 11.1399 111.957 11.2825ZM120.87 9.81583L117.084 5.59463C116.956 5.45203 116.773 5.40937 116.611 5.4667L114.122 6.2111C114.122 6.21103 114.121 6.21063 114.121 6.21083C114.119 6.21163 114.116 6.2121 114.114 6.2121C114.1 6.2121 114.089 6.19963 114.089 6.18423C114.089 6.17437 114.093 6.16577 114.1 6.16083C114.372 5.9593 114.784 5.59463 115.769 4.4963C115.86 4.39463 115.86 4.2297 115.769 4.12797L112.135 0.0763C112.044 -0.0254333 111.896 -0.0254333 111.805 0.0763L108.019 4.2975C107.891 4.4401 107.853 4.64483 107.904 4.82457L108.572 7.60037C108.571 7.6007 108.571 7.60077 108.571 7.60137C108.572 7.60397 108.572 7.60677 108.572 7.60963C108.572 7.62503 108.561 7.6375 108.547 7.6375C108.539 7.6375 108.531 7.63237 108.526 7.62463C108.346 7.32163 108.019 6.8625 107.034 5.76417C106.942 5.66243 106.794 5.66243 106.703 5.76417L103.069 9.81583C102.978 9.91757 102.978 10.0825 103.069 10.1842L106.855 14.4054C106.983 14.548 107.167 14.5906 107.328 14.5333L109.818 13.7889C109.818 13.789 109.818 13.7894 109.818 13.7892C109.821 13.7884 109.823 13.7879 109.826 13.7879C109.84 13.7879 109.851 13.8004 109.851 13.8158C109.851 13.8256 109.846 13.8342 109.839 13.8392C109.839 13.8392 109.839 13.8392 109.839 13.8392C109.568 14.0407 109.156 14.4054 108.171 15.5037C108.079 15.6054 108.079 15.7703 108.171 15.872L111.805 19.9237C111.896 20.0254 112.044 20.0254 112.135 19.9237L115.921 15.7025C116.049 15.5599 116.087 15.3552 116.035 15.1754L115.368 12.3996C115.368 12.3992 115.368 12.3992 115.368 12.3987C115.367 12.396 115.367 12.3933 115.367 12.3904C115.367 12.375 115.378 12.3625 115.392 12.3625C115.401 12.3625 115.409 12.3676 115.413 12.3754C115.594 12.6784 115.921 13.1376 116.906 14.2358C116.997 14.3376 117.145 14.3376 117.236 14.2358L120.87 10.1842C120.961 10.0825 120.961 9.91757 120.87 9.81583Z" fill="#451E17"/>
<path d="M220.806 15.6591C220.041 15.6591 219.382 15.5189 218.829 15.2386C218.276 14.9583 217.85 14.5739 217.551 14.0852C217.251 13.5966 217.102 13.0379 217.102 12.4091C217.102 11.9242 217.204 11.4943 217.409 11.1193C217.617 10.7405 217.903 10.3902 218.267 10.0682C218.634 9.74242 219.056 9.41667 219.534 9.09091L221.216 7.84091C221.545 7.625 221.808 7.39394 222.005 7.14773C222.206 6.90152 222.306 6.57955 222.306 6.18182C222.306 5.88636 222.176 5.60038 221.914 5.32386C221.657 5.04735 221.318 4.90909 220.897 4.90909C220.602 4.90909 220.341 4.98485 220.113 5.13636C219.89 5.28409 219.714 5.47348 219.585 5.70455C219.46 5.93182 219.397 6.16667 219.397 6.40909C219.397 6.68182 219.471 6.95833 219.619 7.23864C219.77 7.51515 219.962 7.79924 220.193 8.09091C220.428 8.37879 220.67 8.67424 220.92 8.97727L226.261 15.5H224.647L220.238 10.1818C219.829 9.68939 219.458 9.24242 219.125 8.84091C218.791 8.43939 218.526 8.04356 218.329 7.65341C218.132 7.26326 218.034 6.84091 218.034 6.38636C218.034 5.86364 218.149 5.4053 218.38 5.01136C218.615 4.61364 218.943 4.30492 219.363 4.08523C219.787 3.86174 220.284 3.75 220.852 3.75C221.435 3.75 221.937 3.86364 222.358 4.09091C222.778 4.31439 223.102 4.61174 223.329 4.98295C223.556 5.35038 223.67 5.75 223.67 6.18182C223.67 6.73864 223.532 7.22159 223.255 7.63068C222.979 8.03977 222.602 8.42045 222.125 8.77273L219.806 10.5C219.284 10.8864 218.93 11.2614 218.744 11.625C218.558 11.9886 218.466 12.25 218.466 12.4091C218.466 12.7727 218.56 13.1117 218.75 13.4261C218.939 13.7405 219.206 13.9943 219.551 14.1875C219.895 14.3807 220.299 14.4773 220.761 14.4773C221.2 14.4773 221.628 14.3845 222.045 14.1989C222.462 14.0095 222.839 13.7367 223.176 13.3807C223.517 13.0246 223.786 12.5966 223.983 12.0966C224.183 11.5966 224.284 11.0341 224.284 10.4091H225.579C225.579 11.1818 225.49 11.8125 225.312 12.3011C225.134 12.7898 224.933 13.1723 224.71 13.4489C224.486 13.7254 224.306 13.9318 224.17 14.0682C224.125 14.125 224.083 14.1818 224.045 14.2386C224.007 14.2955 223.966 14.3523 223.92 14.4091C223.545 14.8295 223.072 15.1439 222.5 15.3523C221.928 15.5568 221.363 15.6591 220.806 15.6591Z" fill="#451E17"/>
<path fill-rule="evenodd" clip-rule="evenodd" d="M248.245 13.7576L247.092 12.4943C246.654 12.936 246.211 13.2859 245.763 13.5439C245.316 13.8016 244.78 13.9304 244.157 13.9304C243.67 13.9304 243.22 13.8279 242.806 13.6229C242.4 13.4226 242.035 13.1353 241.734 12.7784C241.427 12.4128 241.189 11.9867 241.032 11.5236C240.865 11.0308 240.781 10.5095 240.785 9.98466C240.785 9.43719 240.867 8.92667 241.032 8.45308C241.198 7.9795 241.432 7.56653 241.734 7.21419C242.036 6.86133 242.401 6.57699 242.806 6.37765C243.231 6.17014 243.692 6.06503 244.157 6.06963C244.741 6.06963 245.261 6.19598 245.719 6.44869C246.176 6.70101 246.61 7.03252 247.018 7.44321L248.173 6.00598C247.931 5.75426 247.673 5.52214 247.399 5.31152C247.12 5.09719 246.822 4.91473 246.508 4.76708C246.168 4.60868 245.813 4.48962 245.45 4.4119C245.029 4.32398 244.601 4.28153 244.172 4.28516C243.394 4.28516 242.683 4.4352 242.041 4.73526C241.416 5.02171 240.85 5.4402 240.376 5.9662C239.907 6.49107 239.537 7.11073 239.288 7.78988C239.028 8.49795 238.896 9.25384 238.901 10.0159C238.901 10.8153 239.032 11.5624 239.295 12.2573C239.546 12.9306 239.915 13.5445 240.383 14.0645C240.852 14.5795 241.41 14.9898 242.025 15.2721C242.658 15.5673 243.35 15.7146 244.099 15.7143C244.576 15.7143 245.011 15.6696 245.406 15.5801C245.782 15.4969 246.147 15.3645 246.494 15.1857C246.821 15.0143 247.131 14.8079 247.421 14.5697C247.708 14.3333 247.983 14.0624 248.245 13.757M271.413 7.4148C271.413 7.0473 271.559 6.73473 271.849 6.4771C272.139 6.22023 272.546 6.0916 273.068 6.09123C273.533 6.09123 273.993 6.18841 274.448 6.38276C274.903 6.57712 275.363 6.85805 275.827 7.22555L276.786 5.76104C276.282 5.32156 275.716 4.97323 275.109 4.72958C274.514 4.49316 273.843 4.37496 273.097 4.37496C272.594 4.37496 272.13 4.45111 271.706 4.60341C271.281 4.75572 270.917 4.97357 270.614 5.25696C270.314 5.53827 270.071 5.88412 269.901 6.27251C269.728 6.66654 269.642 7.10489 269.641 7.58756C269.641 8.10244 269.717 8.53814 269.867 8.89465C270.017 9.25051 270.241 9.5635 270.523 9.80848C270.808 10.0602 271.164 10.2705 271.585 10.4387C272.008 10.6066 272.491 10.7587 273.035 10.8951C273.509 11.0212 273.894 11.1419 274.191 11.2571C274.486 11.3726 274.719 11.4961 274.891 11.6276C275.06 11.7583 275.177 11.9025 275.239 12.0601C275.302 12.2177 275.334 12.3963 275.334 12.596C275.334 13.0268 275.172 13.3679 274.848 13.6195C274.523 13.8718 274.085 13.9978 273.534 13.9974C272.894 13.9974 272.323 13.8741 271.82 13.6275C271.316 13.3812 270.818 13.027 270.324 12.5647L269.25 13.9503C269.86 14.5489 270.523 14.9925 271.239 15.2812C271.955 15.5699 272.705 15.7143 273.489 15.7143C274.022 15.7143 274.511 15.6408 274.956 15.4938C275.399 15.3466 275.781 15.1312 276.097 14.8482C276.413 14.5655 276.666 14.2102 276.839 13.8082C277.016 13.399 277.105 12.9319 277.105 12.4068C277.105 11.9449 277.035 11.5433 276.895 11.202C276.751 10.8577 276.539 10.5514 276.275 10.304C276.004 10.0472 275.66 9.82951 275.249 9.65049C274.837 9.47243 274.364 9.30989 273.831 9.16289C273.425 9.06117 273.024 8.94019 272.628 8.80032C272.314 8.68476 272.066 8.55879 271.885 8.4224C271.706 8.286 271.583 8.139 271.515 7.98139C271.447 7.82379 271.413 7.63492 271.413 7.4148ZM291.291 7.57051V15.4466H293.065V4.46418H291.16L288.062 9.65731L284.964 4.46418H283.059V15.4466H284.833V7.60234L288.019 12.7483H288.077L291.291 7.57051ZM307.972 10.0159C307.972 10.5528 307.887 11.0604 307.717 11.539C307.557 11.9996 307.317 12.423 307.01 12.7864C306.705 13.142 306.335 13.4266 305.924 13.6229C305.502 13.8283 305.038 13.9309 304.533 13.9309C304.051 13.9361 303.574 13.8283 303.134 13.615C302.718 13.413 302.344 13.1231 302.034 12.7625C301.724 12.3976 301.481 11.9716 301.32 11.5077C301.148 11.0214 301.062 10.505 301.065 9.98466C301.065 9.4478 301.15 8.94012 301.32 8.46161C301.48 8.00093 301.72 7.57753 302.026 7.21419C302.332 6.85868 302.701 6.57407 303.112 6.37765C303.535 6.1723 303.998 6.06963 304.504 6.06963C305.009 6.06963 305.475 6.17496 305.903 6.38561C306.33 6.59626 306.697 6.88041 307.003 7.23806C307.313 7.60292 307.556 8.02893 307.717 8.49287C307.887 8.97175 307.972 9.47944 307.972 10.0159ZM309.852 9.98466C309.852 9.20608 309.721 8.46919 309.459 7.77396C309.208 7.09763 308.837 6.48112 308.366 5.95938C307.9 5.44336 307.341 5.03551 306.69 4.73583C306.039 4.43576 305.32 4.28573 304.533 4.28573C303.746 4.28573 303.027 4.43842 302.376 4.74378C301.744 5.03521 301.17 5.45588 300.686 5.98268C300.209 6.50552 299.833 7.1251 299.578 7.80579C299.315 8.50779 299.181 9.25885 299.184 10.0165C299.184 10.7947 299.316 11.5312 299.578 12.226C299.829 12.9026 300.2 13.5193 300.671 14.0412C301.137 14.5564 301.696 14.9643 302.347 15.2647C302.998 15.564 303.717 15.7139 304.504 15.7143C305.291 15.7143 306.01 15.5618 306.66 15.2568C307.293 14.9661 307.867 14.5453 308.351 14.0179C308.828 13.4949 309.204 12.8751 309.459 12.1942C309.721 11.4997 309.852 10.7632 309.852 9.98466ZM317.308 7.4148C317.308 7.0473 317.453 6.73473 317.744 6.4771C318.034 6.22023 318.441 6.0916 318.964 6.09123C319.436 6.09309 319.904 6.19202 320.343 6.38276C320.798 6.57712 321.258 6.85805 321.723 7.22555L322.681 5.76104C322.177 5.32151 321.61 4.97317 321.004 4.72958C320.409 4.49316 319.738 4.37496 318.992 4.37496C318.489 4.37496 318.025 4.45111 317.601 4.60341C317.176 4.75572 316.812 4.97357 316.509 5.25696C316.209 5.53878 315.966 5.88449 315.795 6.27251C315.623 6.66654 315.537 7.10489 315.537 7.58756C315.537 8.10244 315.612 8.53814 315.761 8.89465C315.911 9.25051 316.136 9.5635 316.417 9.80848C316.703 10.0602 317.059 10.2705 317.48 10.4387C317.954 10.6234 318.438 10.7758 318.929 10.8951C319.404 11.0212 319.789 11.1419 320.086 11.2571C320.381 11.3726 320.615 11.4961 320.786 11.6276C320.955 11.7583 321.071 11.9025 321.134 12.0601C321.197 12.2177 321.229 12.3963 321.229 12.596C321.229 13.0268 321.067 13.3679 320.742 13.6195C320.418 13.8718 319.98 13.9978 319.428 13.9974C318.789 13.9974 318.218 13.8741 317.715 13.6275C317.212 13.3812 316.713 13.027 316.219 12.5647L315.144 13.9503C315.754 14.5489 316.417 14.9925 317.134 15.2812C317.85 15.5699 318.601 15.7143 319.385 15.7143C319.917 15.7143 320.406 15.6408 320.851 15.4938C321.294 15.3466 321.676 15.1312 321.991 14.8482C322.307 14.5656 322.561 14.2103 322.734 13.8082C322.911 13.399 323 12.9319 323 12.4068C323 11.9449 322.93 11.5433 322.79 11.202C322.646 10.8574 322.435 10.5509 322.17 10.304C321.899 10.0472 321.555 9.82951 321.144 9.65049C320.733 9.47262 320.258 9.30951 319.726 9.16289C319.32 9.06117 318.919 8.94019 318.523 8.80032C318.209 8.68476 317.961 8.55879 317.78 8.4224C317.601 8.286 317.477 8.139 317.41 7.98139C317.342 7.82379 317.308 7.63492 317.308 7.4148ZM260.416 6.66294L255.555 11.9123C255.273 11.3158 255.127 10.6547 255.13 9.98466C255.13 9.45007 255.215 8.94429 255.385 8.46729C255.545 8.00827 255.785 7.58646 256.091 7.22442C256.397 6.8702 256.766 6.58677 257.176 6.39129C257.599 6.1867 258.063 6.08441 258.567 6.08441C259.223 6.07671 259.866 6.27793 260.416 6.66294ZM259.987 13.6093C259.565 13.8139 259.102 13.9162 258.597 13.9162C257.941 13.9232 257.298 13.7219 256.748 13.3371L261.609 8.08823C261.893 8.68387 262.039 9.34557 262.034 10.0159C262.034 10.5501 261.949 11.0559 261.779 11.5333C261.62 11.9927 261.38 12.4146 261.073 12.7756C260.767 13.1301 260.398 13.4137 259.987 13.6093ZM260.723 15.2369C261.355 14.9472 261.929 14.5278 262.413 14.002C262.889 13.4822 263.265 12.8649 263.519 12.1863C263.782 11.4937 263.913 10.7598 263.913 9.98466C263.92 8.79003 263.581 7.62287 262.946 6.64589L266.107 3.23153L264.851 1.875L261.679 5.29958C261.388 5.08578 261.077 4.90361 260.752 4.75572C260.101 4.45679 259.383 4.30733 258.597 4.30733C257.81 4.30733 257.092 4.45944 256.441 4.76367C255.809 5.05324 255.236 5.47242 254.752 5.99802C254.275 6.51795 253.898 7.1354 253.645 7.81431C253.381 8.5131 253.247 9.26124 253.252 10.0159C253.245 11.2104 253.583 12.3774 254.219 13.3547L251.057 16.7685L252.313 18.125L255.485 14.701C255.77 14.9105 256.079 15.0918 256.412 15.2448C257.062 15.5434 257.781 15.6927 258.567 15.6927C259.354 15.6927 260.072 15.5407 260.723 15.2369Z" fill="#451E17"/>
<path d="M335.898 5.11364V3.86364H344.625V5.11364H340.966V15.5H339.557V5.11364H335.898ZM349.011 15.6818C348.17 15.6818 347.445 15.4962 346.835 15.125C346.229 14.75 345.761 14.2273 345.432 13.5568C345.106 12.8826 344.943 12.0985 344.943 11.2045C344.943 10.3106 345.106 9.52273 345.432 8.84091C345.761 8.1553 346.22 7.62121 346.807 7.23864C347.398 6.85227 348.087 6.65909 348.875 6.65909C349.33 6.65909 349.778 6.73485 350.222 6.88636C350.665 7.03788 351.068 7.28409 351.432 7.625C351.795 7.96212 352.085 8.40909 352.301 8.96591C352.517 9.52273 352.625 10.2083 352.625 11.0227V11.5909H345.898V10.4318H351.261C351.261 9.93939 351.163 9.5 350.966 9.11364C350.773 8.72727 350.496 8.42235 350.136 8.19886C349.78 7.97538 349.36 7.86364 348.875 7.86364C348.341 7.86364 347.879 7.99621 347.489 8.26136C347.102 8.52273 346.805 8.86364 346.597 9.28409C346.388 9.70455 346.284 10.1553 346.284 10.6364V11.4091C346.284 12.0682 346.398 12.6269 346.625 13.0852C346.856 13.5398 347.176 13.8864 347.585 14.125C347.994 14.3598 348.47 14.4773 349.011 14.4773C349.364 14.4773 349.682 14.428 349.966 14.3295C350.254 14.2273 350.502 14.0758 350.71 13.875C350.919 13.6705 351.08 13.4167 351.193 13.1136L352.489 13.4773C352.352 13.9167 352.123 14.303 351.801 14.6364C351.479 14.9659 351.081 15.2235 350.608 15.4091C350.134 15.5909 349.602 15.6818 349.011 15.6818ZM356.006 10.25V15.5H354.665V6.77273H355.96V8.13636H356.074C356.278 7.69318 356.589 7.33712 357.006 7.06818C357.422 6.79545 357.96 6.65909 358.619 6.65909C359.21 6.65909 359.727 6.7803 360.17 7.02273C360.614 7.26136 360.958 7.625 361.205 8.11364C361.451 8.59848 361.574 9.21212 361.574 9.95455V15.5H360.233V10.0455C360.233 9.35985 360.055 8.82576 359.699 8.44318C359.343 8.05682 358.854 7.86364 358.233 7.86364C357.805 7.86364 357.422 7.95644 357.085 8.14205C356.752 8.32765 356.489 8.59848 356.295 8.95455C356.102 9.31061 356.006 9.74242 356.006 10.25ZM367.32 15.6818C366.592 15.6818 365.95 15.4981 365.393 15.1307C364.837 14.7595 364.401 14.2367 364.087 13.5625C363.772 12.8845 363.615 12.0833 363.615 11.1591C363.615 10.2424 363.772 9.44697 364.087 8.77273C364.401 8.09848 364.839 7.57765 365.399 7.21023C365.96 6.8428 366.607 6.65909 367.342 6.65909C367.911 6.65909 368.359 6.75379 368.689 6.94318C369.022 7.12879 369.276 7.34091 369.45 7.57955C369.628 7.81439 369.767 8.00758 369.865 8.15909H369.979V3.86364H371.32V15.5H370.024V14.1591H369.865C369.767 14.3182 369.626 14.5189 369.445 14.7614C369.263 15 369.003 15.214 368.666 15.4034C368.329 15.589 367.88 15.6818 367.32 15.6818ZM367.501 14.4773C368.039 14.4773 368.494 14.3371 368.865 14.0568C369.236 13.7727 369.518 13.3807 369.712 12.8807C369.905 12.3769 370.001 11.7955 370.001 11.1364C370.001 10.4848 369.907 9.91477 369.717 9.42614C369.528 8.93371 369.248 8.55114 368.876 8.27841C368.505 8.00189 368.047 7.86364 367.501 7.86364C366.933 7.86364 366.46 8.00947 366.081 8.30114C365.706 8.58902 365.424 8.98106 365.234 9.47727C365.049 9.9697 364.956 10.5227 364.956 11.1364C364.956 11.7576 365.051 12.322 365.24 12.8295C365.433 13.3333 365.717 13.7348 366.092 14.0341C366.471 14.3295 366.941 14.4773 367.501 14.4773ZM377.621 15.6818C376.78 15.6818 376.054 15.4962 375.445 15.125C374.839 14.75 374.371 14.2273 374.041 13.5568C373.715 12.8826 373.553 12.0985 373.553 11.2045C373.553 10.3106 373.715 9.52273 374.041 8.84091C374.371 8.1553 374.829 7.62121 375.416 7.23864C376.007 6.85227 376.696 6.65909 377.484 6.65909C377.939 6.65909 378.388 6.73485 378.831 6.88636C379.274 7.03788 379.678 7.28409 380.041 7.625C380.405 7.96212 380.695 8.40909 380.911 8.96591C381.126 9.52273 381.234 10.2083 381.234 11.0227V11.5909H374.507V10.4318H379.871C379.871 9.93939 379.772 9.5 379.575 9.11364C379.382 8.72727 379.106 8.42235 378.746 8.19886C378.39 7.97538 377.969 7.86364 377.484 7.86364C376.95 7.86364 376.488 7.99621 376.098 8.26136C375.712 8.52273 375.414 8.86364 375.206 9.28409C374.998 9.70455 374.893 10.1553 374.893 10.6364V11.4091C374.893 12.0682 375.007 12.6269 375.234 13.0852C375.465 13.5398 375.786 13.8864 376.195 14.125C376.604 14.3598 377.079 14.4773 377.621 14.4773C377.973 14.4773 378.291 14.428 378.575 14.3295C378.863 14.2273 379.111 14.0758 379.32 13.875C379.528 13.6705 379.689 13.4167 379.803 13.1136L381.098 13.4773C380.962 13.9167 380.732 14.303 380.411 14.6364C380.089 14.9659 379.691 15.2235 379.217 15.4091C378.744 15.5909 378.212 15.6818 377.621 15.6818ZM383.274 15.5V6.77273H384.57V8.09091H384.661C384.82 7.65909 385.107 7.30871 385.524 7.03977C385.941 6.77083 386.411 6.63636 386.933 6.63636C387.032 6.63636 387.155 6.63826 387.303 6.64205C387.45 6.64583 387.562 6.65152 387.638 6.65909V8.02273C387.592 8.01136 387.488 7.99432 387.325 7.97159C387.166 7.94508 386.998 7.93182 386.82 7.93182C386.395 7.93182 386.017 8.02083 385.683 8.19886C385.354 8.37311 385.092 8.61553 384.899 8.92614C384.71 9.23295 384.615 9.58333 384.615 9.97727V15.5H383.274ZM389.227 15.5V6.77273H390.523V8.13636H390.636C390.818 7.67045 391.112 7.30871 391.517 7.05114C391.922 6.78977 392.409 6.65909 392.977 6.65909C393.553 6.65909 394.032 6.78977 394.415 7.05114C394.801 7.30871 395.102 7.67045 395.318 8.13636H395.409C395.633 7.68561 395.968 7.32765 396.415 7.0625C396.862 6.79356 397.398 6.65909 398.023 6.65909C398.803 6.65909 399.441 6.90341 399.938 7.39205C400.434 7.87689 400.682 8.63258 400.682 9.65909V15.5H399.341V9.65909C399.341 9.01515 399.165 8.55492 398.812 8.27841C398.46 8.00189 398.045 7.86364 397.568 7.86364C396.955 7.86364 396.479 8.04924 396.142 8.42045C395.805 8.78788 395.636 9.25379 395.636 9.81818V15.5H394.273V9.52273C394.273 9.02652 394.112 8.62689 393.79 8.32386C393.468 8.01705 393.053 7.86364 392.545 7.86364C392.197 7.86364 391.871 7.95644 391.568 8.14205C391.269 8.32765 391.027 8.58523 390.841 8.91477C390.659 9.24053 390.568 9.61742 390.568 10.0455V15.5H389.227ZM403.134 15.5V6.77273H404.474V15.5H403.134ZM403.815 5.31818C403.554 5.31818 403.329 5.22917 403.139 5.05114C402.954 4.87311 402.861 4.65909 402.861 4.40909C402.861 4.15909 402.954 3.94508 403.139 3.76705C403.329 3.58902 403.554 3.5 403.815 3.5C404.077 3.5 404.3 3.58902 404.486 3.76705C404.675 3.94508 404.77 4.15909 404.77 4.40909C404.77 4.65909 404.675 4.87311 404.486 5.05114C404.3 5.22917 404.077 5.31818 403.815 5.31818ZM408.271 10.25V15.5H406.93V6.77273H408.226V8.13636H408.339C408.544 7.69318 408.855 7.33712 409.271 7.06818C409.688 6.79545 410.226 6.65909 410.885 6.65909C411.476 6.65909 411.993 6.7803 412.436 7.02273C412.879 7.26136 413.224 7.625 413.47 8.11364C413.716 8.59848 413.839 9.21212 413.839 9.95455V15.5H412.499V10.0455C412.499 9.35985 412.321 8.82576 411.964 8.44318C411.608 8.05682 411.12 7.86364 410.499 7.86364C410.071 7.86364 409.688 7.95644 409.351 8.14205C409.018 8.32765 408.754 8.59848 408.561 8.95455C408.368 9.31061 408.271 9.74242 408.271 10.25ZM420.085 6.77273V7.90909H415.562V6.77273H420.085ZM416.881 4.68182H418.222V13C418.222 13.3788 418.277 13.6629 418.386 13.8523C418.5 14.0379 418.644 14.1629 418.818 14.2273C418.996 14.2879 419.184 14.3182 419.381 14.3182C419.528 14.3182 419.65 14.3106 419.744 14.2955C419.839 14.2765 419.915 14.2614 419.972 14.25L420.244 15.4545C420.153 15.4886 420.027 15.5227 419.864 15.5568C419.701 15.5947 419.494 15.6136 419.244 15.6136C418.866 15.6136 418.494 15.5322 418.131 15.3693C417.771 15.2064 417.472 14.9583 417.233 14.625C416.998 14.2917 416.881 13.8712 416.881 13.3636V4.68182Z" fill="#451E17"/>
</svg>
