<svg width="101" height="100" viewBox="0 0 101 100" fill="none" xmlns="http://www.w3.org/2000/svg">
<g id="icon-02">
<path id="Polygon 1" opacity="0.2" d="M22.2083 22.6562L12.8333 28.125V39.0625M40.9582 11.7187L50.3332 6.25L59.7082 11.7187M78.4583 22.6562L87.8333 28.125V39.0625M87.8333 60.9375V71.875L78.4583 77.3437M59.7082 88.2812L50.3332 93.75L40.9582 88.2812M22.2083 77.3437L12.8333 71.875V60.9375" stroke="#36351E" stroke-width="2" stroke-linecap="round" stroke-linejoin="round"/>
<path id="Polygon 2" d="M50.3333 25L71.9839 37.5V62.5L50.3333 75L28.6826 62.5V37.5L50.3333 25Z" stroke="#36351E" stroke-width="2" stroke-linecap="round" stroke-linejoin="round"/>
<path id="&#244;&#128;&#180;&#191;" d="M50.3574 39.2648C50.0349 39.2648 49.7607 39.1581 49.5349 38.9447C49.3091 38.7233 49.1962 38.4506 49.1962 38.1265C49.1962 37.8182 49.3091 37.5534 49.5349 37.332C49.7687 37.1107 50.0429 37 50.3574 37C50.68 37 50.9542 37.1107 51.18 37.332C51.4058 37.5455 51.5187 37.8103 51.5187 38.1265C51.5187 38.4506 51.4058 38.7233 51.18 38.9447C50.9623 39.1581 50.6881 39.2648 50.3574 39.2648ZM44.926 42.336C44.6034 42.336 44.3292 42.2253 44.1034 42.004C43.8776 41.7826 43.7647 41.5138 43.7647 41.1976C43.7647 40.8893 43.8776 40.6245 44.1034 40.4032C44.3292 40.1739 44.6034 40.0593 44.926 40.0593C45.2486 40.0593 45.5187 40.17 45.7365 40.3913C45.9623 40.6126 46.0752 40.8814 46.0752 41.1976C46.0752 41.5217 45.9663 41.7945 45.7486 42.0158C45.5308 42.2292 45.2566 42.336 44.926 42.336ZM55.7889 42.336C55.4663 42.336 55.1921 42.2253 54.9663 42.004C54.7486 41.7826 54.6397 41.5138 54.6397 41.1976C54.6397 40.8893 54.7526 40.6245 54.9784 40.4032C55.2042 40.1739 55.4744 40.0593 55.7889 40.0593C56.1115 40.0593 56.3857 40.17 56.6115 40.3913C56.8373 40.6126 56.9502 40.8814 56.9502 41.1976C56.9502 41.5217 56.8373 41.7945 56.6115 42.0158C56.3937 42.2292 56.1195 42.336 55.7889 42.336ZM39.4945 45.4427C39.172 45.4427 38.8978 45.336 38.672 45.1225C38.4462 44.9012 38.3333 44.6285 38.3333 44.3043C38.3333 43.996 38.4462 43.7312 38.672 43.5099C38.9058 43.2885 39.18 43.1779 39.4945 43.1779C39.8091 43.1779 40.0792 43.2885 40.305 43.5099C40.5389 43.7312 40.6558 43.996 40.6558 44.3043C40.6558 44.6364 40.5429 44.9091 40.3171 45.1225C40.0913 45.336 39.8171 45.4427 39.4945 45.4427ZM50.3574 45.8577C49.922 45.8577 49.551 45.7075 49.2445 45.4071C48.9381 45.0988 48.7849 44.7312 48.7849 44.3043C48.7849 43.8854 48.9381 43.5257 49.2445 43.2253C49.5591 42.917 49.93 42.7628 50.3574 42.7628C50.7929 42.7628 51.1639 42.917 51.4703 43.2253C51.7768 43.5257 51.93 43.8854 51.93 44.3043C51.93 44.7391 51.7768 45.1067 51.4703 45.4071C51.172 45.7075 50.801 45.8577 50.3574 45.8577ZM61.1841 45.4427C60.8534 45.4427 60.5752 45.336 60.3494 45.1225C60.1316 44.9012 60.0228 44.6285 60.0228 44.3043C60.0228 44.004 60.1357 43.7431 60.3615 43.5217C60.5873 43.2925 60.8615 43.1779 61.1841 43.1779C61.5066 43.1779 61.7768 43.2885 61.9945 43.5099C62.2203 43.7233 62.3333 43.9881 62.3333 44.3043C62.3333 44.6364 62.2203 44.9091 61.9945 45.1225C61.7768 45.336 61.5066 45.4427 61.1841 45.4427ZM44.926 48.9407C44.4905 48.9407 44.1195 48.7905 43.8131 48.4901C43.5066 48.1897 43.3534 47.8261 43.3534 47.3992C43.3534 46.9802 43.5107 46.6206 43.8252 46.3202C44.1397 46.0119 44.5066 45.8577 44.926 45.8577C45.3534 45.8577 45.7203 46.0079 46.0268 46.3083C46.3413 46.6087 46.4986 46.9723 46.4986 47.3992C46.4986 47.834 46.3453 48.2016 46.0389 48.502C45.7405 48.7945 45.3695 48.9407 44.926 48.9407ZM55.7889 48.9407C55.3534 48.9407 54.9824 48.7905 54.676 48.4901C54.3695 48.1897 54.2163 47.8261 54.2163 47.3992C54.2163 46.9802 54.3695 46.6206 54.676 46.3202C54.9905 46.0119 55.3615 45.8577 55.7889 45.8577C56.2163 45.8577 56.5833 46.0079 56.8897 46.3083C57.2042 46.6087 57.3615 46.9723 57.3615 47.3992C57.3615 47.834 57.2083 48.2016 56.9018 48.502C56.5953 48.7945 56.2244 48.9407 55.7889 48.9407ZM39.4945 51.6324C39.172 51.6324 38.8978 51.5257 38.672 51.3123C38.4462 51.0909 38.3333 50.8182 38.3333 50.4941C38.3333 50.1858 38.4462 49.9209 38.672 49.6996C38.9058 49.4783 39.18 49.3676 39.4945 49.3676C39.8091 49.3676 40.0792 49.4783 40.305 49.6996C40.5389 49.913 40.6558 50.1779 40.6558 50.4941C40.6558 50.8182 40.5429 51.0909 40.3171 51.3123C40.0913 51.5257 39.8171 51.6324 39.4945 51.6324ZM50.3574 52.3083C49.8494 52.3083 49.4139 52.1304 49.051 51.7747C48.6962 51.419 48.5187 50.9921 48.5187 50.4941C48.5187 50.17 48.5994 49.8696 48.7607 49.5929C48.93 49.3162 49.1518 49.0988 49.426 48.9407C49.7083 48.7747 50.0187 48.6917 50.3574 48.6917C50.8655 48.6917 51.297 48.8696 51.6518 49.2253C52.0147 49.581 52.1962 50.004 52.1962 50.4941C52.1962 51 52.0187 51.4308 51.6639 51.7866C51.3091 52.1344 50.8736 52.3083 50.3574 52.3083ZM61.1841 51.6324C60.8534 51.6324 60.5752 51.5257 60.3494 51.3123C60.1316 51.0909 60.0228 50.8182 60.0228 50.4941C60.0228 50.1858 60.1357 49.9209 60.3615 49.6996C60.5873 49.4783 60.8615 49.3676 61.1841 49.3676C61.5066 49.3676 61.7768 49.4783 61.9945 49.6996C62.2203 49.913 62.3333 50.1779 62.3333 50.4941C62.3333 50.8261 62.2203 51.0988 61.9945 51.3123C61.7768 51.5257 61.5066 51.6324 61.1841 51.6324ZM44.926 55.1423C44.4986 55.1423 44.1276 54.9921 43.8131 54.6917C43.5066 54.3913 43.3534 54.0277 43.3534 53.6008C43.3534 53.1818 43.5066 52.8221 43.8131 52.5217C44.1276 52.2134 44.4986 52.0593 44.926 52.0593C45.3534 52.0593 45.7203 52.2095 46.0268 52.5099C46.3413 52.8103 46.4986 53.1739 46.4986 53.6008C46.4986 54.0277 46.3453 54.3913 46.0389 54.6917C45.7324 54.9921 45.3615 55.1423 44.926 55.1423ZM55.7889 55.1423C55.3534 55.1423 54.9824 54.9921 54.676 54.6917C54.3695 54.3913 54.2163 54.0277 54.2163 53.6008C54.2163 53.1818 54.3695 52.8221 54.676 52.5217C54.9905 52.2134 55.3615 52.0593 55.7889 52.0593C56.2163 52.0593 56.5833 52.2095 56.8897 52.5099C57.2042 52.8103 57.3615 53.1739 57.3615 53.6008C57.3615 54.0277 57.2083 54.3913 56.9018 54.6917C56.5953 54.9921 56.2244 55.1423 55.7889 55.1423ZM39.4945 57.8103C39.172 57.8103 38.8978 57.7036 38.672 57.4901C38.4462 57.2688 38.3333 57 38.3333 56.6838C38.3333 56.3755 38.4462 56.1107 38.672 55.8893C38.9058 55.6601 39.18 55.5455 39.4945 55.5455C39.8091 55.5455 40.0792 55.6561 40.305 55.8775C40.5389 56.0988 40.6558 56.3676 40.6558 56.6838C40.6558 57.0079 40.5429 57.2767 40.3171 57.4901C40.0913 57.7036 39.8171 57.8103 39.4945 57.8103ZM50.3574 58.2253C49.922 58.2253 49.551 58.0751 49.2445 57.7747C48.9381 57.4743 48.7849 57.1107 48.7849 56.6838C48.7849 56.2648 48.9381 55.9051 49.2445 55.6047C49.5591 55.2964 49.93 55.1423 50.3574 55.1423C50.7929 55.1423 51.1639 55.2925 51.4703 55.5929C51.7768 55.8933 51.93 56.2569 51.93 56.6838C51.93 57.1107 51.7768 57.4743 51.4703 57.7747C51.172 58.0751 50.801 58.2253 50.3574 58.2253ZM61.1841 57.8103C60.8534 57.8103 60.5752 57.7036 60.3494 57.4901C60.1316 57.2688 60.0228 57 60.0228 56.6838C60.0228 56.3755 60.1357 56.1107 60.3615 55.8893C60.5873 55.6601 60.8615 55.5455 61.1841 55.5455C61.4986 55.5455 61.7687 55.6561 61.9945 55.8775C62.2203 56.0988 62.3333 56.3676 62.3333 56.6838C62.3333 57.0079 62.2244 57.2767 62.0066 57.4901C61.7889 57.7036 61.5147 57.8103 61.1841 57.8103ZM44.926 60.9407C44.6034 60.9407 44.3292 60.8261 44.1034 60.5968C43.8776 60.3755 43.7647 60.1107 43.7647 59.8024C43.7647 59.4941 43.8776 59.2253 44.1034 58.996C44.3292 58.7668 44.6034 58.6522 44.926 58.6522C45.2486 58.6522 45.5187 58.7628 45.7365 58.9842C45.9623 59.2134 46.0752 59.4862 46.0752 59.8024C46.0752 60.1186 45.9663 60.3874 45.7486 60.6087C45.5308 60.83 45.2566 60.9407 44.926 60.9407ZM55.7889 60.9407C55.4663 60.9407 55.1921 60.8261 54.9663 60.5968C54.7486 60.3755 54.6397 60.1107 54.6397 59.8024C54.6397 59.4941 54.7526 59.2253 54.9784 58.996C55.2042 58.7668 55.4744 58.6522 55.7889 58.6522C56.1115 58.6522 56.3857 58.7628 56.6115 58.9842C56.8373 59.2134 56.9502 59.4862 56.9502 59.8024C56.9502 60.1186 56.8373 60.3874 56.6115 60.6087C56.3937 60.83 56.1195 60.9407 55.7889 60.9407ZM50.3574 64C50.0349 64 49.7607 63.8893 49.5349 63.668C49.3091 63.4545 49.1962 63.1858 49.1962 62.8617C49.1962 62.5534 49.3091 62.2885 49.5349 62.0672C49.7687 61.8458 50.0429 61.7352 50.3574 61.7352C50.68 61.7352 50.9542 61.8419 51.18 62.0553C51.4058 62.2767 51.5187 62.5455 51.5187 62.8617C51.5187 63.1937 51.4058 63.4664 51.18 63.6798C50.9623 63.8933 50.6881 64 50.3574 64Z" fill="#36351E"/>
</g>
</svg>
