<svg width="101" height="100" viewBox="0 0 101 100" fill="none" xmlns="http://www.w3.org/2000/svg">
<g id="icon-03">
<path id="Vector" opacity="0.2" d="M14.7693 9.96779L50.8325 1.99988L86.8956 9.96779C88.9039 10.4115 90.3325 12.1823 90.3325 14.2275V57.806C90.3325 66.5599 85.9322 74.7347 78.6063 79.5906L50.8325 97.9999L23.0588 79.5906C15.7329 74.7347 11.3325 66.5599 11.3325 57.806V14.2275C11.3325 12.1823 12.7612 10.4115 14.7693 9.96779Z" stroke="#36351E" stroke-width="2" stroke-linecap="round" stroke-linejoin="round"/>
<path id="Vector_2" d="M36.2224 40.8333V39.8333C35.6701 39.8333 35.2224 40.281 35.2224 40.8333H36.2224ZM65.3891 40.8333H66.3891C66.3891 40.281 65.9414 39.8333 65.3891 39.8333V40.8333ZM65.3891 62.5V63.5C65.9414 63.5 66.3891 63.0523 66.3891 62.5H65.3891ZM36.2224 62.5H35.2224C35.2224 63.0523 35.6701 63.5 36.2224 63.5V62.5ZM51.8057 49.1667C51.8057 48.6144 51.358 48.1667 50.8057 48.1667C50.2535 48.1667 49.8057 48.6144 49.8057 49.1667H51.8057ZM49.8057 53.75C49.8057 54.3023 50.2535 54.75 50.8057 54.75C51.358 54.75 51.8057 54.3023 51.8057 53.75H49.8057ZM43.4724 33.3333C43.4724 29.2832 46.7557 26 50.8057 26V24C45.6511 24 41.4724 28.1787 41.4724 33.3333H43.4724ZM50.8057 26C54.8558 26 58.1391 29.2832 58.1391 33.3333H60.1391C60.1391 28.1787 55.9604 24 50.8057 24V26ZM41.4724 33.3333V40.8333H43.4724V33.3333H41.4724ZM58.1391 33.3333V40.8333H60.1391V33.3333H58.1391ZM64.3891 40.8333V62.5H66.3891V40.8333H64.3891ZM65.3891 61.5H36.2224V63.5H65.3891V61.5ZM37.2224 62.5V40.8333H35.2224V62.5H37.2224ZM36.2224 41.8333H50.8057V39.8333H36.2224V41.8333ZM50.8057 41.8333H65.3891V39.8333H50.8057V41.8333ZM49.8057 49.1667V53.75H51.8057V49.1667H49.8057Z" fill="#36351E"/>
</g>
</svg>
