<svg width="100" height="100" viewBox="0 0 100 100" fill="none" xmlns="http://www.w3.org/2000/svg">
<g id="icon-01">
<path id="Vector" opacity="0.2" d="M69.2653 13.0449C63.5037 10.0352 56.9507 8.33334 50.0002 8.33334C43.0497 8.33334 36.4966 10.0352 30.7351 13.0449M13.0593 30.7076C10.0407 36.4758 8.3335 43.0385 8.3335 50C8.3335 56.9615 10.0407 63.5242 13.0593 69.2924M30.7351 86.9551C36.4966 89.9648 43.0497 91.6667 50.0002 91.6667C56.9507 91.6667 63.5037 89.9648 69.2653 86.9551M86.941 69.2924C89.9596 63.5242 91.6668 56.9615 91.6668 50C91.6668 43.0385 89.9596 36.4758 86.941 30.7076" stroke="#36351E" stroke-width="2" stroke-linecap="round" stroke-linejoin="round"/>
<path id="Vector_2" d="M15.8335 15.8333L37.7978 37.7976M84.1668 84.1667L62.2025 62.2024M84.1668 15.8333L62.2025 37.7976M15.8335 84.1667L37.7978 62.2024M37.7978 37.7976L25.5954 50L37.7978 62.2024M37.7978 37.7976L50.0002 25.5952L62.2025 37.7976M62.2025 37.7976L74.4049 50L62.2025 62.2024M37.7978 62.2024L50.0002 74.4048L62.2025 62.2024" stroke="#36351E" stroke-width="2" stroke-linecap="round" stroke-linejoin="round"/>
<path id="Vector_3" d="M45.9 42.5V57.5L42.5 54.0385M53.2667 57.5V42.5L56.6667 45.9615" stroke="#36351E" stroke-width="2" stroke-linecap="round" stroke-linejoin="round"/>
</g>
</svg>
